G04 Layer_Color=7318015*
%FSLAX24Y24*%
%MOIN*%
G70*
G01*
G75*
%ADD10O,0.0945X0.0236*%
%ADD11R,0.0945X0.0236*%
%ADD12R,0.0532X0.0571*%
D10*
X46325Y29600D02*
D03*
Y30100D02*
D03*
Y30600D02*
D03*
Y31100D02*
D03*
Y31600D02*
D03*
Y32100D02*
D03*
Y32600D02*
D03*
Y33100D02*
D03*
Y33600D02*
D03*
Y34100D02*
D03*
Y34600D02*
D03*
Y35100D02*
D03*
Y35600D02*
D03*
Y36100D02*
D03*
Y36600D02*
D03*
Y37100D02*
D03*
Y37600D02*
D03*
Y38100D02*
D03*
Y38600D02*
D03*
Y39100D02*
D03*
Y39600D02*
D03*
X42275Y29600D02*
D03*
Y30100D02*
D03*
Y30600D02*
D03*
Y31100D02*
D03*
Y31600D02*
D03*
Y32100D02*
D03*
Y32600D02*
D03*
Y33100D02*
D03*
Y33600D02*
D03*
Y34100D02*
D03*
Y34600D02*
D03*
Y35100D02*
D03*
Y35600D02*
D03*
Y36100D02*
D03*
Y36600D02*
D03*
Y37100D02*
D03*
Y37600D02*
D03*
Y38100D02*
D03*
Y38600D02*
D03*
Y39100D02*
D03*
D11*
Y39600D02*
D03*
D12*
X40575D02*
D03*
X41225D02*
D03*
X40575Y37100D02*
D03*
X41225D02*
D03*
X40555Y29600D02*
D03*
X41205D02*
D03*
M02*
