G04 Layer_Color=13813960*
%FSLAX24Y24*%
%MOIN*%
G70*
G01*
G75*
%ADD15C,0.0100*%
%ADD26C,0.0060*%
%ADD39C,0.0079*%
%ADD40C,0.0098*%
D15*
X37850Y40750D02*
X38850Y40750D01*
X38900Y28750D01*
X27850Y29750D02*
Y39750D01*
Y29750D02*
X37850D01*
Y39750D01*
X27850D02*
X37850D01*
X26850Y40750D02*
X37850Y40750D01*
X26850Y28750D02*
Y40750D01*
Y28750D02*
X38900D01*
X36050Y36300D02*
Y36900D01*
X35750D01*
X35650Y36800D01*
Y36600D01*
X35750Y36500D01*
X36050D01*
X35850D02*
X35650Y36300D01*
X35450D02*
X35250D01*
X35350D01*
Y36900D01*
X35450Y36800D01*
X31000Y33900D02*
X31100Y34000D01*
X31300D01*
X31400Y33900D01*
Y33500D01*
X31300Y33400D01*
X31100D01*
X31000Y33500D01*
X30400Y33400D02*
X30800D01*
X30400Y33800D01*
Y33900D01*
X30500Y34000D01*
X30700D01*
X30800Y33900D01*
X30960Y34900D02*
X31060Y35000D01*
X31260D01*
X31360Y34900D01*
Y34500D01*
X31260Y34400D01*
X31060D01*
X30960Y34500D01*
X30760Y34400D02*
X30560D01*
X30660D01*
Y35000D01*
X30760Y34900D01*
X25160Y37960D02*
X25493D01*
X25660Y37793D01*
X25493Y37627D01*
X25160D01*
Y37460D02*
X25660D01*
Y37210D01*
X25577Y37127D01*
X25493D01*
X25410Y37210D01*
Y37460D01*
Y37210D01*
X25327Y37127D01*
X25243D01*
X25160Y37210D01*
Y37460D01*
Y36960D02*
X25660D01*
Y36710D01*
X25577Y36627D01*
X25493D01*
X25410Y36710D01*
Y36960D01*
Y36710D01*
X25327Y36627D01*
X25243D01*
X25160Y36710D01*
Y36960D01*
X31400Y32850D02*
Y32350D01*
X31300Y32250D01*
X31100D01*
X31000Y32350D01*
Y32850D01*
X30800Y32750D02*
X30700Y32850D01*
X30500D01*
X30400Y32750D01*
Y32650D01*
X30500Y32550D01*
X30600D01*
X30500D01*
X30400Y32450D01*
Y32350D01*
X30500Y32250D01*
X30700D01*
X30800Y32350D01*
X33250Y38780D02*
Y38280D01*
X33150Y38180D01*
X32950D01*
X32850Y38280D01*
Y38780D01*
X32350Y38180D02*
Y38780D01*
X32650Y38480D01*
X32250D01*
X34500Y36250D02*
X34700D01*
X34600D01*
Y35750D01*
X34700Y35650D01*
X34800D01*
X34900Y35750D01*
X34300Y35650D02*
X34100D01*
X34200D01*
Y36250D01*
X34300Y36150D01*
X29100Y38400D02*
X29300D01*
X29200D01*
Y37900D01*
X29300Y37800D01*
X29400D01*
X29500Y37900D01*
X28500Y37800D02*
X28900D01*
X28500Y38200D01*
Y38300D01*
X28600Y38400D01*
X28800D01*
X28900Y38300D01*
X36750Y38900D02*
X36850Y39000D01*
X37050D01*
X37150Y38900D01*
Y38500D01*
X37050Y38400D01*
X36850D01*
X36750Y38500D01*
X36150Y39000D02*
X36350Y38900D01*
X36550Y38700D01*
Y38500D01*
X36450Y38400D01*
X36250D01*
X36150Y38500D01*
Y38600D01*
X36250Y38700D01*
X36550D01*
X47200Y27800D02*
Y28400D01*
X46900D01*
X46800Y28300D01*
Y28100D01*
X46900Y28000D01*
X47200D01*
X47000D02*
X46800Y27800D01*
X46200Y28400D02*
X46600D01*
Y27800D01*
X46200D01*
X46600Y28100D02*
X46400D01*
X46000Y28400D02*
Y28000D01*
X45800Y27800D01*
X45601Y28000D01*
Y28400D01*
X44801D02*
Y27800D01*
X44501D01*
X44401Y27900D01*
Y28000D01*
X44501Y28100D01*
X44801D01*
X44501D01*
X44401Y28200D01*
Y28300D01*
X44501Y28400D01*
X44801D01*
X47200Y26800D02*
Y27400D01*
X47000Y27200D01*
X46800Y27400D01*
Y26800D01*
X46500Y27200D02*
X46300D01*
X46200Y27100D01*
Y26800D01*
X46500D01*
X46600Y26900D01*
X46500Y27000D01*
X46200D01*
X46000Y27200D02*
Y26900D01*
X45900Y26800D01*
X45601D01*
Y26700D01*
X45700Y26600D01*
X45800D01*
X45601Y26800D02*
Y27200D01*
X44401Y26800D02*
X44801D01*
X44401Y27200D01*
Y27300D01*
X44501Y27400D01*
X44701D01*
X44801Y27300D01*
X44201D02*
X44101Y27400D01*
X43901D01*
X43801Y27300D01*
Y26900D01*
X43901Y26800D01*
X44101D01*
X44201Y26900D01*
Y27300D01*
X43201Y26800D02*
X43601D01*
X43201Y27200D01*
Y27300D01*
X43301Y27400D01*
X43501D01*
X43601Y27300D01*
X43001D02*
X42901Y27400D01*
X42701D01*
X42601Y27300D01*
Y26900D01*
X42701Y26800D01*
X42901D01*
X43001Y26900D01*
Y27300D01*
D26*
X34707Y36430D02*
X34920D01*
X34707Y36643D01*
Y36697D01*
X34760Y36750D01*
X34867D01*
X34920Y36697D01*
X34600D02*
X34547Y36750D01*
X34440D01*
X34387Y36697D01*
Y36643D01*
X34440Y36590D01*
X34387Y36537D01*
Y36483D01*
X34440Y36430D01*
X34547D01*
X34600Y36483D01*
Y36537D01*
X34547Y36590D01*
X34600Y36643D01*
Y36697D01*
X34547Y36590D02*
X34440D01*
X34280Y36430D02*
Y36750D01*
X34174Y36643D01*
X34067Y36750D01*
Y36430D01*
X34850Y38050D02*
Y38370D01*
X34743Y38263D01*
X34637Y38370D01*
Y38050D01*
X34530Y38370D02*
Y38103D01*
X34477Y38050D01*
X34370D01*
X34317Y38103D01*
Y38370D01*
X34210D02*
X33997Y38050D01*
Y38370D02*
X34210Y38050D01*
X29430Y35560D02*
Y35773D01*
X29323Y35880D01*
X29217Y35773D01*
Y35560D01*
Y35720D01*
X29430D01*
X28897Y35560D02*
X29110D01*
X28897Y35773D01*
Y35827D01*
X28950Y35880D01*
X29057D01*
X29110Y35827D01*
X28790D02*
X28737Y35880D01*
X28630D01*
X28577Y35827D01*
Y35613D01*
X28630Y35560D01*
X28737D01*
X28790Y35613D01*
Y35827D01*
X29490Y37470D02*
X29277Y37150D01*
Y37470D02*
X29490Y37150D01*
X28957Y37417D02*
X29010Y37470D01*
X29117D01*
X29170Y37417D01*
Y37203D01*
X29117Y37150D01*
X29010D01*
X28957Y37203D01*
X28850Y37470D02*
Y37150D01*
X28637D01*
X28530Y37470D02*
Y37150D01*
Y37257D01*
X28317Y37470D01*
X28477Y37310D01*
X28317Y37150D01*
D39*
X29650Y36412D02*
G03*
X29650Y36662I0J125D01*
G01*
X35511Y37154D02*
X35589D01*
X35511Y37646D02*
X35589D01*
X29650Y36662D02*
Y37150D01*
Y35900D02*
Y36412D01*
Y35900D02*
X33650D01*
Y37150D01*
X29650D02*
X33650D01*
X30121Y32502D02*
Y32698D01*
X28939Y32502D02*
Y32698D01*
Y32502D02*
X30121D01*
X28939Y32698D02*
X30121D01*
D40*
X30298Y32128D02*
G03*
X30298Y32128I-49J0D01*
G01*
M02*
