M48
;Layer_Color=6321
;FILE_FORMAT=2:4
INCH,LZ
;TYPE=PLATED
T1F00S00C0.0150
T2F00S00C0.0300
%
T01
X04705Y0296
X04525Y02815
X0432Y02905
X0433Y0295
X041275Y029625
X041Y0284
X038261Y029061
X038539Y029339
X03775Y03025
X03775Y03075
X03725Y0304
X03735Y0299
X03685
X03635
X03585
X03535
X03485
X03435
X03385
X03335
X03285
X03235
X03185
X03135
X0435Y0264
X03085Y0299
X03035
X02985Y0299
X02875Y03015
X02825Y03025
Y03075
X02815Y0298
X02935Y03105
X0245Y0284
X0265Y02615
X02825Y03125
Y03175
Y03225
Y03275
Y03325
Y03375
Y03425
Y03475
X02825Y03575
X02825Y03625
Y03675
Y03725
Y03775
X0285Y0389
X02835Y03945
X02885Y03965
X02935
X02985
X03035
X03085
X027161Y040139
X02745Y04045
X0261Y04165
X025Y04255
X02415Y0405
X0249Y0392
X02505Y0347
X03135Y03965
X03185Y03965
X03235Y03965
X03285Y03965
X03335
X03385Y03965
X03435
X03485
X03535
X03585
X03635Y03965
X03685Y03965
X03735
X03725Y03915
X03775Y03925
Y03875
Y03825
Y03775
Y03725
Y03675
Y03625
Y03575
Y03525
Y03475
Y03425
Y03375
X03745Y03325
X03775Y03275
X03775Y03225
X03775Y03175
X03775Y03125
X041275Y032
X0433Y0322
X0432Y0326
X04385Y0322
X043Y0336
X0433Y03785
X041275Y0371
X0406Y03615
Y03945
X041275Y0396
X038539Y040139
X038239Y040439
X03895Y04075
X03615Y0423
X03635Y03805
X0449Y03985
X04585Y0424
X04705Y0371
Y0331
T02
X0249Y03765
M30
