M48
;Layer_Color=6321
;FILE_FORMAT=2:4
INCH,LZ
;TYPE=PLATED
T1F00S00C0.0150
T2F00S00C0.0300
%
T01
X047Y0296
X0412Y0302
X04055
X0365Y0305
X0268Y0287
X02916Y03158
X0287Y03369
X02863Y03469
X02975Y0365
X02895Y03765
X02538Y03482
X03258Y03691
X03465Y0386
X04058Y04015
X0412
Y03655
X04058Y03656
X0403Y03265
X047Y0331
Y0371
Y0396
T02
X03135Y02825
X03185Y02875
Y02975
X03285
Y02875
X03385
Y02975
X03485
Y02875
X03585
Y02975
X03685
Y02875
X03785
Y02975
X03885
Y03075
X03785
X03735Y03025
X03835
Y02925
X03735
Y02825
X03635
Y02925
X03535
Y02825
X03435
Y02925
X03335
Y02825
X03235
Y02925
X03135
X03085Y02875
X02985
X02885
X02785
Y02975
Y03075
X02685
Y02975
X02735Y02925
X02835
X02885Y02975
X02985
X03085
X03035Y02925
Y02825
X02935
Y02925
X02835Y02825
X02735
X02635Y02925
Y03025
X02735
Y03125
X02685Y03175
Y03275
Y03375
Y03475
Y03575
Y03675
Y03775
Y03875
Y03975
X02785
X02885
X02985
X03085
Y04075
X02985
X02885
X02785
X02735Y04025
Y03925
X02785Y03875
Y03775
Y03675
Y03575
Y03475
Y03375
Y03275
Y03175
X02735Y03225
X02635
Y03125
Y03325
X02735
Y03425
X02635
Y03525
X02735
Y03625
X02635
Y03725
X02735
Y03825
X02635
Y03925
X0249Y03875
X02835Y03925
Y04025
X02935
Y03925
X03035
Y04025
X03135
X03185Y04075
X03285
X03385
X03485
X03585
X03685
X03785
Y03975
Y03875
Y03775
Y03675
Y03575
Y03475
X03885
Y03575
Y03675
Y03775
Y03875
Y03975
X03835Y03925
X03735
X03685Y03975
X03585
X03485
X03385
X03285
X03185
X03135Y03925
X03235
Y04025
X03335
Y03925
X03435
Y04025
X03535
Y03925
X03635
Y04025
X03735
Y03825
X03835
Y03725
X03735
Y03625
X03835
Y03525
X03735
Y03425
X03785Y03375
Y03275
Y03175
X03885
Y03275
Y03375
X03835Y03325
X03735
Y03225
X03835
Y03125
X03735
X03835Y03425
M30
