G04 Layer_Color=20142*
%FSLAX24Y24*%
%MOIN*%
G70*
G01*
G75*
%ADD18C,0.0100*%
%ADD32C,0.0060*%
%ADD33R,0.0651X0.0612*%
%ADD34O,0.0356X0.1143*%
%ADD35O,0.1143X0.0356*%
%ADD36O,0.1025X0.0316*%
%ADD37R,0.1025X0.0316*%
%ADD38R,0.0513X0.0336*%
%ADD39C,0.0680*%
%ADD40C,0.0380*%
D18*
X27500Y42400D02*
Y42800D01*
X27700Y43000D01*
X27900Y42800D01*
Y42400D01*
Y42700D01*
X27500D01*
X28500Y43000D02*
X28100D01*
Y42700D01*
X28300Y42800D01*
X28400D01*
X28500Y42700D01*
Y42500D01*
X28400Y42400D01*
X28200D01*
X28100Y42500D01*
X28700Y42900D02*
X28800Y43000D01*
X29000D01*
X29099Y42900D01*
Y42500D01*
X29000Y42400D01*
X28800D01*
X28700Y42500D01*
Y42900D01*
X29299D02*
X29399Y43000D01*
X29599D01*
X29699Y42900D01*
Y42500D01*
X29599Y42400D01*
X29399D01*
X29299Y42500D01*
Y42900D01*
X29899Y42400D02*
X30299Y42800D01*
X30899Y42400D02*
X30499D01*
X30899Y42800D01*
Y42900D01*
X30799Y43000D01*
X30599D01*
X30499Y42900D01*
X31099D02*
X31199Y43000D01*
X31399D01*
X31499Y42900D01*
Y42500D01*
X31399Y42400D01*
X31199D01*
X31099Y42500D01*
Y42900D01*
X31699D02*
X31799Y43000D01*
X31999D01*
X32099Y42900D01*
Y42500D01*
X31999Y42400D01*
X31799D01*
X31699Y42500D01*
Y42900D01*
X32298D02*
X32398Y43000D01*
X32598D01*
X32698Y42900D01*
Y42500D01*
X32598Y42400D01*
X32398D01*
X32298Y42500D01*
Y42900D01*
X33898Y42400D02*
X33498D01*
X33898Y42800D01*
Y42900D01*
X33798Y43000D01*
X33598D01*
X33498Y42900D01*
X34098Y42400D02*
Y43000D01*
X34298Y42800D01*
X34498Y43000D01*
Y42400D01*
X35098Y43000D02*
X34698D01*
Y42400D01*
X35098D01*
X34698Y42700D02*
X34898D01*
X35697Y42900D02*
X35597Y43000D01*
X35397D01*
X35297Y42900D01*
Y42500D01*
X35397Y42400D01*
X35597D01*
X35697Y42500D01*
Y42700D01*
X35497D01*
X36897Y42900D02*
X36797Y43000D01*
X36597D01*
X36497Y42900D01*
Y42500D01*
X36597Y42400D01*
X36797D01*
X36897Y42500D01*
X37097Y43000D02*
Y42400D01*
Y42700D01*
X37497D01*
Y43000D01*
Y42400D01*
X37697Y43000D02*
X37897D01*
X37797D01*
Y42400D01*
X37697D01*
X37897D01*
X38197D02*
Y43000D01*
X38496D01*
X38596Y42900D01*
Y42700D01*
X38496Y42600D01*
X38197D01*
D32*
X39300Y42550D02*
X39250Y42600D01*
X39150D01*
X39100Y42550D01*
Y42350D01*
X39150Y42300D01*
X39250D01*
X39300Y42350D01*
Y42450D01*
X39200D01*
X39400Y42300D02*
X39500D01*
X39450D01*
Y42500D01*
X39400D01*
X39700Y42550D02*
Y42500D01*
X39650D01*
X39750D01*
X39700D01*
Y42350D01*
X39750Y42300D01*
X39900Y42600D02*
Y42300D01*
Y42450D01*
X39950Y42500D01*
X40050D01*
X40100Y42450D01*
Y42300D01*
X40200Y42500D02*
Y42350D01*
X40250Y42300D01*
X40400D01*
Y42500D01*
X40500Y42600D02*
Y42300D01*
X40649D01*
X40699Y42350D01*
Y42400D01*
Y42450D01*
X40649Y42500D01*
X40500D01*
X40799Y42300D02*
Y42350D01*
X40849D01*
Y42300D01*
X40799D01*
X41249Y42500D02*
X41099D01*
X41049Y42450D01*
Y42350D01*
X41099Y42300D01*
X41249D01*
X41399D02*
X41499D01*
X41549Y42350D01*
Y42450D01*
X41499Y42500D01*
X41399D01*
X41349Y42450D01*
Y42350D01*
X41399Y42300D01*
X41649D02*
Y42500D01*
X41699D01*
X41749Y42450D01*
Y42300D01*
Y42450D01*
X41799Y42500D01*
X41849Y42450D01*
Y42300D01*
X41949D02*
X42149Y42500D01*
X42249Y42600D02*
Y42300D01*
X42449D01*
X42549Y42600D02*
X42649D01*
X42599D01*
Y42300D01*
X42549D01*
X42649D01*
X42799Y42600D02*
Y42400D01*
X42899Y42300D01*
X42999Y42400D01*
Y42600D01*
X43299Y42300D02*
X43099D01*
X43299Y42500D01*
Y42550D01*
X43249Y42600D01*
X43149D01*
X43099Y42550D01*
X39200Y43100D02*
Y42800D01*
X39350D01*
X39400Y42850D01*
Y42900D01*
X39350Y42950D01*
X39200D01*
X39350D01*
X39400Y43000D01*
Y43050D01*
X39350Y43100D01*
X39200D01*
X39500Y43000D02*
Y42850D01*
X39550Y42800D01*
X39700D01*
Y42750D01*
X39650Y42700D01*
X39600D01*
X39700Y42800D02*
Y43000D01*
X40100Y42800D02*
Y43100D01*
X40200Y43000D01*
X40300Y43100D01*
Y42800D01*
X40450Y43000D02*
X40550D01*
X40600Y42950D01*
Y42800D01*
X40450D01*
X40400Y42850D01*
X40450Y42900D01*
X40600D01*
X40750Y43050D02*
Y43000D01*
X40700D01*
X40799D01*
X40750D01*
Y42850D01*
X40799Y42800D01*
X40999Y43050D02*
Y43000D01*
X40949D01*
X41049D01*
X40999D01*
Y42850D01*
X41049Y42800D01*
X41499Y43100D02*
Y42800D01*
Y42950D01*
X41699D01*
Y43100D01*
Y42800D01*
X41849Y43000D02*
X41949D01*
X41999Y42950D01*
Y42800D01*
X41849D01*
X41799Y42850D01*
X41849Y42900D01*
X41999D01*
X42099Y43000D02*
Y42800D01*
Y42900D01*
X42149Y42950D01*
X42199Y43000D01*
X42249D01*
X42399Y42800D02*
X42499D01*
X42449D01*
Y43100D01*
X42399D01*
X42649Y43000D02*
Y42850D01*
X42699Y42800D01*
X42849D01*
Y43000D01*
X42949Y42800D02*
Y43000D01*
X42999D01*
X43049Y42950D01*
Y42800D01*
Y42950D01*
X43099Y43000D01*
X43149Y42950D01*
Y42800D01*
D33*
X25150Y35625D02*
D03*
Y36275D02*
D03*
D34*
X37850Y40439D02*
D03*
X37350D02*
D03*
X36850D02*
D03*
X36350D02*
D03*
X35850D02*
D03*
X35350D02*
D03*
X34850D02*
D03*
X34350D02*
D03*
X33850D02*
D03*
X33350D02*
D03*
X32850D02*
D03*
X32350D02*
D03*
X31850D02*
D03*
X31350D02*
D03*
X30850D02*
D03*
X30350D02*
D03*
X29850D02*
D03*
X29350D02*
D03*
X28850D02*
D03*
X28350D02*
D03*
X27850D02*
D03*
Y29061D02*
D03*
X28350D02*
D03*
X28850D02*
D03*
X29350D02*
D03*
X29850D02*
D03*
X30350D02*
D03*
X30850D02*
D03*
X31350D02*
D03*
X31850D02*
D03*
X32350D02*
D03*
X32850D02*
D03*
X33350D02*
D03*
X33850D02*
D03*
X34350D02*
D03*
X34850D02*
D03*
X35350D02*
D03*
X35850D02*
D03*
X36350D02*
D03*
X36850D02*
D03*
X37350D02*
D03*
X37850D02*
D03*
D35*
X27161Y39750D02*
D03*
Y39250D02*
D03*
Y38750D02*
D03*
Y38250D02*
D03*
Y37750D02*
D03*
Y37250D02*
D03*
Y36750D02*
D03*
Y36250D02*
D03*
Y35750D02*
D03*
Y35250D02*
D03*
Y34750D02*
D03*
Y34250D02*
D03*
Y33750D02*
D03*
Y33250D02*
D03*
Y32750D02*
D03*
Y32250D02*
D03*
Y31750D02*
D03*
Y31250D02*
D03*
Y30750D02*
D03*
Y30250D02*
D03*
Y29750D02*
D03*
X38539D02*
D03*
Y30250D02*
D03*
Y30750D02*
D03*
Y31250D02*
D03*
Y31750D02*
D03*
Y32250D02*
D03*
Y32750D02*
D03*
Y33250D02*
D03*
Y33750D02*
D03*
Y34250D02*
D03*
Y34750D02*
D03*
Y35250D02*
D03*
Y35750D02*
D03*
Y36250D02*
D03*
Y36750D02*
D03*
Y37250D02*
D03*
Y37750D02*
D03*
Y38250D02*
D03*
Y38750D02*
D03*
Y39250D02*
D03*
Y39750D02*
D03*
D36*
X46325Y29600D02*
D03*
Y30100D02*
D03*
Y30600D02*
D03*
Y31100D02*
D03*
Y31600D02*
D03*
Y32100D02*
D03*
Y32600D02*
D03*
Y33100D02*
D03*
Y33600D02*
D03*
Y34100D02*
D03*
Y34600D02*
D03*
Y35100D02*
D03*
Y35600D02*
D03*
Y36100D02*
D03*
Y36600D02*
D03*
Y37100D02*
D03*
Y37600D02*
D03*
Y38100D02*
D03*
Y38600D02*
D03*
Y39100D02*
D03*
Y39600D02*
D03*
X42275Y29600D02*
D03*
Y30100D02*
D03*
Y30600D02*
D03*
Y31100D02*
D03*
Y31600D02*
D03*
Y32100D02*
D03*
Y32600D02*
D03*
Y33100D02*
D03*
Y33600D02*
D03*
Y34100D02*
D03*
Y34600D02*
D03*
Y35100D02*
D03*
Y35600D02*
D03*
Y36100D02*
D03*
Y36600D02*
D03*
Y37100D02*
D03*
Y37600D02*
D03*
Y38100D02*
D03*
Y38600D02*
D03*
Y39100D02*
D03*
D37*
Y39600D02*
D03*
D38*
X40228Y31624D02*
D03*
Y31250D02*
D03*
Y30876D02*
D03*
X41172D02*
D03*
Y31624D02*
D03*
D39*
X24900Y37650D02*
D03*
D40*
X40600Y39450D02*
D03*
M02*
