G04 Layer_Color=13813960*
%FSLAX24Y24*%
%MOIN*%
G70*
G01*
G75*
%ADD18C,0.0100*%
%ADD31C,0.0079*%
%ADD49C,0.0050*%
D18*
X43300Y41250D02*
X43400Y41350D01*
X43600D01*
X43700Y41250D01*
Y40850D01*
X43600Y40750D01*
X43400D01*
X43300Y40850D01*
X43100Y40750D02*
X42900D01*
X43000D01*
Y41350D01*
X43100Y41250D01*
X47300Y39850D02*
Y40450D01*
X47000D01*
X46900Y40350D01*
Y40150D01*
X47000Y40050D01*
X47300D01*
X47100D02*
X46900Y39850D01*
X46700D02*
X46500D01*
X46600D01*
Y40450D01*
X46700Y40350D01*
X45600Y35650D02*
Y35150D01*
X45500Y35050D01*
X45300D01*
X45200Y35150D01*
Y35650D01*
X44700Y35050D02*
Y35650D01*
X45000Y35350D01*
X44600D01*
X41700Y41550D02*
X41800Y41650D01*
X42000D01*
X42100Y41550D01*
Y41150D01*
X42000Y41050D01*
X41800D01*
X41700Y41150D01*
X41500Y41550D02*
X41400Y41650D01*
X41200D01*
X41100Y41550D01*
Y41450D01*
X41200Y41350D01*
X41300D01*
X41200D01*
X41100Y41250D01*
Y41150D01*
X41200Y41050D01*
X41400D01*
X41500Y41150D01*
X47050Y42800D02*
X47150Y42900D01*
X47350D01*
X47450Y42800D01*
Y42400D01*
X47350Y42300D01*
X47150D01*
X47050Y42400D01*
X46450Y42900D02*
X46650Y42800D01*
X46850Y42600D01*
Y42400D01*
X46750Y42300D01*
X46550D01*
X46450Y42400D01*
Y42500D01*
X46550Y42600D01*
X46850D01*
X41700Y39050D02*
X41800Y39150D01*
X42000D01*
X42100Y39050D01*
Y38650D01*
X42000Y38550D01*
X41800D01*
X41700Y38650D01*
X41200Y38550D02*
Y39150D01*
X41500Y38850D01*
X41100D01*
X41700Y33800D02*
X41800Y33900D01*
X42000D01*
X42100Y33800D01*
Y33400D01*
X42000Y33300D01*
X41800D01*
X41700Y33400D01*
X41100Y33300D02*
X41500D01*
X41100Y33700D01*
Y33800D01*
X41200Y33900D01*
X41400D01*
X41500Y33800D01*
X41650Y31700D02*
X41750Y31800D01*
X41950D01*
X42050Y31700D01*
Y31300D01*
X41950Y31200D01*
X41750D01*
X41650Y31300D01*
X41050Y31800D02*
X41450D01*
Y31500D01*
X41250Y31600D01*
X41150D01*
X41050Y31500D01*
Y31300D01*
X41150Y31200D01*
X41350D01*
X41450Y31300D01*
X47200Y27400D02*
Y28000D01*
X46900D01*
X46800Y27900D01*
Y27700D01*
X46900Y27600D01*
X47200D01*
X47000D02*
X46800Y27400D01*
X46200Y28000D02*
X46600D01*
Y27400D01*
X46200D01*
X46600Y27700D02*
X46400D01*
X46000Y28000D02*
Y27600D01*
X45800Y27400D01*
X45601Y27600D01*
Y28000D01*
X44401Y27900D02*
X44501Y28000D01*
X44701D01*
X44801Y27900D01*
Y27500D01*
X44701Y27400D01*
X44501D01*
X44401Y27500D01*
X47200Y26400D02*
Y27000D01*
X47000Y26800D01*
X46800Y27000D01*
Y26400D01*
X46500Y26800D02*
X46300D01*
X46200Y26700D01*
Y26400D01*
X46500D01*
X46600Y26500D01*
X46500Y26600D01*
X46200D01*
X46000Y26800D02*
Y26500D01*
X45900Y26400D01*
X45601D01*
Y26300D01*
X45700Y26200D01*
X45800D01*
X45601Y26400D02*
Y26800D01*
X44401Y26400D02*
X44801D01*
X44401Y26800D01*
Y26900D01*
X44501Y27000D01*
X44701D01*
X44801Y26900D01*
X44201D02*
X44101Y27000D01*
X43901D01*
X43801Y26900D01*
Y26500D01*
X43901Y26400D01*
X44101D01*
X44201Y26500D01*
Y26900D01*
X43201Y26400D02*
X43601D01*
X43201Y26800D01*
Y26900D01*
X43301Y27000D01*
X43501D01*
X43601Y26900D01*
X43001Y26400D02*
X42801D01*
X42901D01*
Y27000D01*
X43001Y26900D01*
D31*
X44962Y39850D02*
G03*
X45212Y39850I125J0D01*
G01*
X39388Y40104D02*
Y40419D01*
Y28224D02*
Y29395D01*
X38217Y28224D02*
X39388D01*
X26337D02*
X27508D01*
X26337D02*
Y29395D01*
Y40104D02*
Y41275D01*
X27508D01*
X38217D02*
X38532D01*
X39388Y40419D01*
X46911Y41196D02*
X46989D01*
X46911Y40704D02*
X46989D01*
X45212Y39850D02*
X45700D01*
X44450D02*
X44962D01*
X44450Y35850D02*
Y39850D01*
Y35850D02*
X45700D01*
Y39850D01*
D49*
X45150Y40200D02*
X45650D01*
Y41200D01*
X45150D02*
X45650D01*
X45150Y40200D02*
Y41200D01*
X47200Y37950D02*
Y38950D01*
X46700Y37950D02*
X47200D01*
X46700D02*
Y38950D01*
X47200D01*
X47400Y37550D02*
Y37850D01*
X47300Y37750D01*
X47200Y37850D01*
Y37550D01*
X47100Y37850D02*
Y37600D01*
X47050Y37550D01*
X46950D01*
X46900Y37600D01*
Y37850D01*
X46800D02*
X46600Y37550D01*
Y37850D02*
X46800Y37550D01*
X47150Y39050D02*
X47350D01*
X47150Y39250D01*
Y39300D01*
X47200Y39350D01*
X47300D01*
X47350Y39300D01*
X47050D02*
X47000Y39350D01*
X46900D01*
X46850Y39300D01*
Y39250D01*
X46900Y39200D01*
X46850Y39150D01*
Y39100D01*
X46900Y39050D01*
X47000D01*
X47050Y39100D01*
Y39150D01*
X47000Y39200D01*
X47050Y39250D01*
Y39300D01*
X47000Y39200D02*
X46900D01*
X46750Y39050D02*
Y39350D01*
X46650Y39250D01*
X46550Y39350D01*
Y39050D01*
X45100Y40500D02*
X44900Y40200D01*
Y40500D02*
X45100Y40200D01*
X44600Y40450D02*
X44650Y40500D01*
X44750D01*
X44800Y40450D01*
Y40250D01*
X44750Y40200D01*
X44650D01*
X44600Y40250D01*
X44500Y40500D02*
Y40200D01*
X44300D01*
X44200Y40500D02*
Y40200D01*
Y40300D01*
X44000Y40500D01*
X44150Y40350D01*
X44000Y40200D01*
X45050Y40950D02*
Y41150D01*
X44950Y41250D01*
X44850Y41150D01*
Y40950D01*
Y41100D01*
X45050D01*
X44550Y40950D02*
X44750D01*
X44550Y41150D01*
Y41200D01*
X44600Y41250D01*
X44700D01*
X44750Y41200D01*
X44450D02*
X44400Y41250D01*
X44300D01*
X44250Y41200D01*
Y41000D01*
X44300Y40950D01*
X44400D01*
X44450Y41000D01*
Y41200D01*
M02*
