G04 Layer_Color=7318015*
%FSLAX24Y24*%
%MOIN*%
G70*
G01*
G75*
%ADD10R,0.0571X0.0532*%
%ADD11O,0.0276X0.1063*%
%ADD12O,0.1063X0.0276*%
%ADD13O,0.0945X0.0236*%
%ADD14R,0.0945X0.0236*%
%ADD15R,0.0433X0.0256*%
D10*
X25150Y35625D02*
D03*
Y36275D02*
D03*
D11*
X37850Y40439D02*
D03*
X37350D02*
D03*
X36850D02*
D03*
X36350D02*
D03*
X35850D02*
D03*
X35350D02*
D03*
X34850D02*
D03*
X34350D02*
D03*
X33850D02*
D03*
X33350D02*
D03*
X32850D02*
D03*
X32350D02*
D03*
X31850D02*
D03*
X31350D02*
D03*
X30850D02*
D03*
X30350D02*
D03*
X29850D02*
D03*
X29350D02*
D03*
X28850D02*
D03*
X28350D02*
D03*
X27850D02*
D03*
Y29061D02*
D03*
X28350D02*
D03*
X28850D02*
D03*
X29350D02*
D03*
X29850D02*
D03*
X30350D02*
D03*
X30850D02*
D03*
X31350D02*
D03*
X31850D02*
D03*
X32350D02*
D03*
X32850D02*
D03*
X33350D02*
D03*
X33850D02*
D03*
X34350D02*
D03*
X34850D02*
D03*
X35350D02*
D03*
X35850D02*
D03*
X36350D02*
D03*
X36850D02*
D03*
X37350D02*
D03*
X37850D02*
D03*
D12*
X27161Y39750D02*
D03*
Y39250D02*
D03*
Y38750D02*
D03*
Y38250D02*
D03*
Y37750D02*
D03*
Y37250D02*
D03*
Y36750D02*
D03*
Y36250D02*
D03*
Y35750D02*
D03*
Y35250D02*
D03*
Y34750D02*
D03*
Y34250D02*
D03*
Y33750D02*
D03*
Y33250D02*
D03*
Y32750D02*
D03*
Y32250D02*
D03*
Y31750D02*
D03*
Y31250D02*
D03*
Y30750D02*
D03*
Y30250D02*
D03*
Y29750D02*
D03*
X38539D02*
D03*
Y30250D02*
D03*
Y30750D02*
D03*
Y31250D02*
D03*
Y31750D02*
D03*
Y32250D02*
D03*
Y32750D02*
D03*
Y33250D02*
D03*
Y33750D02*
D03*
Y34250D02*
D03*
Y34750D02*
D03*
Y35250D02*
D03*
Y35750D02*
D03*
Y36250D02*
D03*
Y36750D02*
D03*
Y37250D02*
D03*
Y37750D02*
D03*
Y38250D02*
D03*
Y38750D02*
D03*
Y39250D02*
D03*
Y39750D02*
D03*
D13*
X46325Y29600D02*
D03*
Y30100D02*
D03*
Y30600D02*
D03*
Y31100D02*
D03*
Y31600D02*
D03*
Y32100D02*
D03*
Y32600D02*
D03*
Y33100D02*
D03*
Y33600D02*
D03*
Y34100D02*
D03*
Y34600D02*
D03*
Y35100D02*
D03*
Y35600D02*
D03*
Y36100D02*
D03*
Y36600D02*
D03*
Y37100D02*
D03*
Y37600D02*
D03*
Y38100D02*
D03*
Y38600D02*
D03*
Y39100D02*
D03*
Y39600D02*
D03*
X42275Y29600D02*
D03*
Y30100D02*
D03*
Y30600D02*
D03*
Y31100D02*
D03*
Y31600D02*
D03*
Y32100D02*
D03*
Y32600D02*
D03*
Y33100D02*
D03*
Y33600D02*
D03*
Y34100D02*
D03*
Y34600D02*
D03*
Y35100D02*
D03*
Y35600D02*
D03*
Y36100D02*
D03*
Y36600D02*
D03*
Y37100D02*
D03*
Y37600D02*
D03*
Y38100D02*
D03*
Y38600D02*
D03*
Y39100D02*
D03*
D14*
Y39600D02*
D03*
D15*
X40228Y31624D02*
D03*
Y31250D02*
D03*
Y30876D02*
D03*
X41172D02*
D03*
Y31624D02*
D03*
M02*
