G04 Layer_Color=8150272*
%FSLAX24Y24*%
%MOIN*%
G70*
G01*
G75*
%ADD33R,0.0651X0.0612*%
%ADD39C,0.0680*%
%ADD40C,0.0380*%
%ADD41R,0.0434X0.1871*%
%ADD42R,0.1871X0.0434*%
%ADD43R,0.0612X0.0651*%
%ADD44R,0.0493X0.0651*%
%ADD45R,0.0671X0.0297*%
%ADD46O,0.0671X0.0297*%
%ADD47R,0.0592X0.0651*%
%ADD48R,0.0480X0.0280*%
G36*
X47190Y37960D02*
X46710D01*
Y38940D01*
X47190D01*
Y37960D01*
D02*
G37*
G36*
X45640Y40210D02*
X45160D01*
Y41190D01*
X45640D01*
Y40210D01*
D02*
G37*
D33*
X43250Y39625D02*
D03*
Y40275D02*
D03*
D39*
X24900Y37650D02*
D03*
D40*
X40600Y39450D02*
D03*
D41*
X37850Y28441D02*
D03*
X37350D02*
D03*
X36850D02*
D03*
X36350D02*
D03*
X35850D02*
D03*
X35350D02*
D03*
X34850D02*
D03*
X34350D02*
D03*
X33850D02*
D03*
X33350D02*
D03*
X32850D02*
D03*
X32350D02*
D03*
X31850D02*
D03*
X31350D02*
D03*
X30850D02*
D03*
X30350D02*
D03*
X29850D02*
D03*
X29350D02*
D03*
X28850D02*
D03*
X28350D02*
D03*
X27850D02*
D03*
Y41059D02*
D03*
X28350D02*
D03*
X28850D02*
D03*
X29350D02*
D03*
X29850D02*
D03*
X30350D02*
D03*
X30850D02*
D03*
X31350D02*
D03*
X31850D02*
D03*
X32350D02*
D03*
X32850D02*
D03*
X33350D02*
D03*
X33850D02*
D03*
X34350D02*
D03*
X34850D02*
D03*
X35350D02*
D03*
X35850D02*
D03*
X36350D02*
D03*
X36850D02*
D03*
X37350D02*
D03*
X37850D02*
D03*
D42*
X26541Y29750D02*
D03*
Y30250D02*
D03*
Y30750D02*
D03*
Y31250D02*
D03*
Y31750D02*
D03*
Y32250D02*
D03*
Y32750D02*
D03*
Y33250D02*
D03*
Y33750D02*
D03*
Y34250D02*
D03*
Y34750D02*
D03*
Y35250D02*
D03*
Y35750D02*
D03*
Y36250D02*
D03*
Y36750D02*
D03*
Y37250D02*
D03*
Y37750D02*
D03*
Y38250D02*
D03*
Y38750D02*
D03*
Y39250D02*
D03*
Y39750D02*
D03*
X39159D02*
D03*
Y39250D02*
D03*
Y38750D02*
D03*
Y38250D02*
D03*
Y37750D02*
D03*
Y37250D02*
D03*
Y36750D02*
D03*
Y36250D02*
D03*
Y35750D02*
D03*
Y35250D02*
D03*
Y34750D02*
D03*
Y34250D02*
D03*
Y33750D02*
D03*
Y32750D02*
D03*
Y32250D02*
D03*
Y31750D02*
D03*
Y31250D02*
D03*
Y30750D02*
D03*
Y30250D02*
D03*
Y29750D02*
D03*
Y33250D02*
D03*
D43*
X41925Y40350D02*
D03*
X41275D02*
D03*
X41925Y37850D02*
D03*
X41275D02*
D03*
Y32600D02*
D03*
X41925D02*
D03*
X41875Y30500D02*
D03*
X41225D02*
D03*
D44*
X47314Y40950D02*
D03*
X46586D02*
D03*
D45*
X46150Y39600D02*
D03*
D46*
Y39100D02*
D03*
Y38600D02*
D03*
Y38100D02*
D03*
Y37600D02*
D03*
Y37100D02*
D03*
Y36600D02*
D03*
Y36100D02*
D03*
X44024Y39600D02*
D03*
Y39100D02*
D03*
Y38600D02*
D03*
Y38100D02*
D03*
Y37600D02*
D03*
Y37100D02*
D03*
Y36600D02*
D03*
Y36100D02*
D03*
D47*
X46635Y41750D02*
D03*
X47265D02*
D03*
D48*
X46950Y38800D02*
D03*
Y38450D02*
D03*
Y38100D02*
D03*
X45400Y41050D02*
D03*
Y40700D02*
D03*
Y40350D02*
D03*
M02*
