G04 Layer_Color=8150272*
%FSLAX24Y24*%
%MOIN*%
G70*
G01*
G75*
%ADD29R,0.0612X0.0651*%
%ADD30C,0.0530*%
%ADD31C,0.0680*%
%ADD32R,0.0493X0.0651*%
%ADD33R,0.0297X0.0671*%
%ADD34O,0.0297X0.0671*%
%ADD35R,0.0592X0.0651*%
%ADD36R,0.0336X0.0513*%
%ADD37R,0.0480X0.0280*%
%ADD38R,0.0651X0.0612*%
G36*
X29210Y36030D02*
X28730D01*
Y37010D01*
X29210D01*
Y36030D01*
D02*
G37*
G36*
X34790Y36920D02*
X34310D01*
Y37900D01*
X34790D01*
Y36920D01*
D02*
G37*
D29*
X29895Y33700D02*
D03*
X29245D02*
D03*
X29890Y34700D02*
D03*
X29240D02*
D03*
D30*
X38850Y34750D02*
D03*
X37850D02*
D03*
X38850Y35750D02*
D03*
X37850D02*
D03*
X38850Y36750D02*
D03*
X37850D02*
D03*
X38850Y37750D02*
D03*
X37850D02*
D03*
X38850Y38750D02*
D03*
X37850D02*
D03*
X38850Y39750D02*
D03*
X37850Y40750D02*
D03*
Y39750D02*
D03*
X36850Y40750D02*
D03*
Y39750D02*
D03*
X35850Y40750D02*
D03*
Y39750D02*
D03*
X34850Y40750D02*
D03*
Y39750D02*
D03*
X33850Y40750D02*
D03*
Y39750D02*
D03*
X32850Y40750D02*
D03*
Y39750D02*
D03*
X31850Y40750D02*
D03*
Y39750D02*
D03*
X30850Y40750D02*
D03*
Y39750D02*
D03*
X29850Y40750D02*
D03*
Y39750D02*
D03*
X28850Y40750D02*
D03*
Y39750D02*
D03*
X27850Y40750D02*
D03*
X26850Y39750D02*
D03*
X27850D02*
D03*
X26850Y38750D02*
D03*
X27850D02*
D03*
X26850Y37750D02*
D03*
X27850D02*
D03*
X26850Y36750D02*
D03*
X27850D02*
D03*
X26850Y35750D02*
D03*
X27850D02*
D03*
X26850Y34750D02*
D03*
X27850D02*
D03*
X26850Y33750D02*
D03*
X27850D02*
D03*
X26850Y32750D02*
D03*
X27850D02*
D03*
X26850Y31750D02*
D03*
X27850D02*
D03*
X26850Y30750D02*
D03*
X27850D02*
D03*
X26850Y29750D02*
D03*
X27850Y28750D02*
D03*
Y29750D02*
D03*
X28850Y28750D02*
D03*
Y29750D02*
D03*
X29850Y28750D02*
D03*
Y29750D02*
D03*
X30850Y28750D02*
D03*
Y29750D02*
D03*
X31850Y28750D02*
D03*
Y29750D02*
D03*
X32850Y28750D02*
D03*
Y29750D02*
D03*
X33850Y28750D02*
D03*
Y29750D02*
D03*
X34850Y28750D02*
D03*
Y29750D02*
D03*
X35850Y28750D02*
D03*
Y29750D02*
D03*
X36850Y28750D02*
D03*
Y29750D02*
D03*
X37850Y28750D02*
D03*
X38850Y29750D02*
D03*
X37850D02*
D03*
X38850Y30750D02*
D03*
X37850D02*
D03*
X38850Y31750D02*
D03*
X37850D02*
D03*
X38850Y32750D02*
D03*
X37850D02*
D03*
X38850Y33750D02*
D03*
X37850D02*
D03*
X37350Y33250D02*
D03*
X38350D02*
D03*
X37350Y32250D02*
D03*
X38350D02*
D03*
X37350Y31250D02*
D03*
X38350D02*
D03*
X37350Y30250D02*
D03*
X38350D02*
D03*
X37350Y29250D02*
D03*
X38350D02*
D03*
X37350Y28250D02*
D03*
X36350Y29250D02*
D03*
Y28250D02*
D03*
X35350Y29250D02*
D03*
Y28250D02*
D03*
X34350Y29250D02*
D03*
Y28250D02*
D03*
X33350Y29250D02*
D03*
Y28250D02*
D03*
X32350Y29250D02*
D03*
Y28250D02*
D03*
X31350Y29250D02*
D03*
Y28250D02*
D03*
X30350Y29250D02*
D03*
Y28250D02*
D03*
X29350Y29250D02*
D03*
Y28250D02*
D03*
X28350Y29250D02*
D03*
Y28250D02*
D03*
X27350Y29250D02*
D03*
Y28250D02*
D03*
X26350Y29250D02*
D03*
X27350Y30250D02*
D03*
X26350D02*
D03*
X27350Y31250D02*
D03*
X26350D02*
D03*
X27350Y32250D02*
D03*
X26350D02*
D03*
X27350Y33250D02*
D03*
X26350D02*
D03*
X27350Y34250D02*
D03*
X26350D02*
D03*
X27350Y35250D02*
D03*
X26350D02*
D03*
X27350Y36250D02*
D03*
X26350D02*
D03*
X27350Y37250D02*
D03*
X26350D02*
D03*
X27350Y38250D02*
D03*
X26350D02*
D03*
X27350Y39250D02*
D03*
X26350D02*
D03*
X27350Y40250D02*
D03*
X28350Y39250D02*
D03*
Y40250D02*
D03*
X29350Y39250D02*
D03*
Y40250D02*
D03*
X30350Y39250D02*
D03*
Y40250D02*
D03*
X31350Y39250D02*
D03*
Y40250D02*
D03*
X32350Y39250D02*
D03*
Y40250D02*
D03*
X33350Y39250D02*
D03*
Y40250D02*
D03*
X34350Y39250D02*
D03*
Y40250D02*
D03*
X35350Y39250D02*
D03*
Y40250D02*
D03*
X36350Y39250D02*
D03*
Y40250D02*
D03*
X37350Y39250D02*
D03*
Y40250D02*
D03*
X38350Y39250D02*
D03*
X37350Y38250D02*
D03*
X38350D02*
D03*
X37350Y37250D02*
D03*
X38350D02*
D03*
X37350Y36250D02*
D03*
X38350D02*
D03*
X37350Y35250D02*
D03*
X38350D02*
D03*
X37350Y34250D02*
D03*
X38350D02*
D03*
D31*
X24900Y38750D02*
D03*
D32*
X35186Y37400D02*
D03*
X35914D02*
D03*
D33*
X29900Y37600D02*
D03*
D34*
X30400D02*
D03*
X30900D02*
D03*
X31400D02*
D03*
X31900D02*
D03*
X32400D02*
D03*
X32900D02*
D03*
X33400D02*
D03*
X29900Y35474D02*
D03*
X30400D02*
D03*
X30900D02*
D03*
X31400D02*
D03*
X31900D02*
D03*
X32400D02*
D03*
X32900D02*
D03*
X33400D02*
D03*
D35*
X35865Y38150D02*
D03*
X35235D02*
D03*
D36*
X29904Y32128D02*
D03*
X29530D02*
D03*
X29156D02*
D03*
Y33072D02*
D03*
X29904D02*
D03*
D37*
X34550Y37060D02*
D03*
Y37410D02*
D03*
Y37760D02*
D03*
X28970Y36170D02*
D03*
Y36520D02*
D03*
Y36870D02*
D03*
D38*
X25380Y35465D02*
D03*
Y36115D02*
D03*
M02*
