G04 Layer_Physical_Order=2*
G04 Layer_Color=11436288*
%FSLAX24Y24*%
%MOIN*%
G70*
G01*
G75*
%ADD10R,0.0571X0.0532*%
%ADD16C,0.0090*%
%ADD17C,0.0200*%
%ADD18C,0.0100*%
%ADD19C,0.0600*%
%ADD20C,0.0300*%
%ADD21R,0.0354X0.1791*%
%ADD22R,0.1791X0.0354*%
%ADD23R,0.0532X0.0571*%
%ADD24R,0.0413X0.0571*%
%ADD25R,0.0591X0.0217*%
%ADD26O,0.0591X0.0217*%
%ADD27R,0.0512X0.0571*%
%ADD28R,0.0400X0.0200*%
G36*
X38239Y40204D02*
X38276Y40212D01*
X38312Y40176D01*
X38304Y40139D01*
X38321Y40057D01*
X38297Y40007D01*
X38183D01*
Y39493D01*
Y39377D01*
X37942D01*
X37916Y39416D01*
X37840Y39466D01*
X37750Y39484D01*
X37660Y39466D01*
X37584Y39416D01*
X37534Y39340D01*
X37522Y39283D01*
X37469Y39272D01*
X37430Y39330D01*
X37372Y39369D01*
X37383Y39422D01*
X37440Y39433D01*
X37516Y39484D01*
X37567Y39560D01*
X37584Y39650D01*
X37567Y39740D01*
X37516Y39816D01*
X37477Y39842D01*
Y40083D01*
X38107D01*
Y40197D01*
X38157Y40221D01*
X38239Y40204D01*
D02*
G37*
G36*
X46909Y41365D02*
X47025D01*
X47027Y41315D01*
X47027D01*
Y40585D01*
X47187D01*
Y38980D01*
X46670D01*
Y38921D01*
X46651Y38918D01*
X46610Y38890D01*
X46462Y38743D01*
X46410Y38777D01*
X46337Y38792D01*
X45963D01*
X45890Y38777D01*
X45827Y38736D01*
X45782Y38758D01*
X45613Y38926D01*
X45633Y38973D01*
X45822D01*
X45827Y38964D01*
X45890Y38923D01*
X45963Y38908D01*
X46337D01*
X46410Y38923D01*
X46473Y38964D01*
X46514Y39027D01*
X46529Y39100D01*
X46514Y39173D01*
X46473Y39236D01*
X46410Y39277D01*
X46337Y39292D01*
X45963D01*
X45890Y39277D01*
X45827Y39236D01*
X45822Y39227D01*
X45553D01*
X45527Y39253D01*
Y40170D01*
X45680D01*
Y40520D01*
Y40573D01*
X45750D01*
X45799Y40582D01*
X45840Y40610D01*
X45940Y40710D01*
X45968Y40751D01*
X45973Y40775D01*
X46023Y40770D01*
Y39788D01*
X45775D01*
Y39412D01*
X46525D01*
Y39788D01*
X46277D01*
Y40544D01*
X46299Y40585D01*
X46873D01*
Y41315D01*
X46762D01*
Y41385D01*
X46909D01*
Y41365D01*
D02*
G37*
G36*
X37518Y30261D02*
X37516Y30250D01*
X37534Y30160D01*
X37584Y30084D01*
X37660Y30033D01*
X37750Y30015D01*
X37840Y30033D01*
X37916Y30084D01*
X37942Y30122D01*
X38183D01*
Y29993D01*
Y29493D01*
X38312D01*
X38336Y29449D01*
X38322Y29429D01*
X38304Y29339D01*
X38306Y29329D01*
X38271Y29293D01*
X38261Y29295D01*
X38171Y29278D01*
X38151Y29264D01*
X38107Y29288D01*
Y29416D01*
X37477D01*
Y29708D01*
X37516Y29734D01*
X37567Y29810D01*
X37584Y29900D01*
X37567Y29990D01*
X37516Y30066D01*
X37440Y30117D01*
X37383Y30128D01*
X37372Y30181D01*
X37430Y30220D01*
X37471Y30280D01*
X37518Y30261D01*
D02*
G37*
G36*
X35976Y42485D02*
X35970Y42480D01*
X35915Y42398D01*
X35905Y42350D01*
X36150D01*
Y42250D01*
X35905D01*
X35915Y42202D01*
X35970Y42120D01*
X36022Y42085D01*
X36007Y42035D01*
X27593D01*
Y40684D01*
X27549Y40661D01*
X27540Y40667D01*
X27450Y40684D01*
X27360Y40667D01*
X27284Y40616D01*
X27233Y40540D01*
X27215Y40450D01*
X27223Y40412D01*
X27180Y40370D01*
X27161Y40374D01*
X27071Y40356D01*
X26995Y40305D01*
X26944Y40229D01*
X26926Y40139D01*
X26943Y40057D01*
X26921Y40007D01*
X25565D01*
Y39493D01*
Y39377D01*
X25453D01*
X25247Y39583D01*
Y41236D01*
X26544Y42533D01*
X35962D01*
X35976Y42485D01*
D02*
G37*
G36*
X47750Y25800D02*
X23900D01*
Y40370D01*
X23950Y40385D01*
X23984Y40334D01*
X24060Y40283D01*
X24150Y40265D01*
X24240Y40283D01*
X24278Y40309D01*
X24328Y40282D01*
Y38595D01*
X24337Y38546D01*
X24365Y38505D01*
X24710Y38160D01*
X24751Y38132D01*
X24800Y38122D01*
X25565D01*
Y37993D01*
Y37493D01*
Y36993D01*
Y36493D01*
Y35993D01*
Y35527D01*
X25545D01*
Y35300D01*
X27536D01*
Y35527D01*
X27516D01*
Y35993D01*
Y36122D01*
X28059D01*
X28084Y36084D01*
X28155Y36037D01*
X28157Y36015D01*
X28151Y35984D01*
X28070Y35930D01*
X28015Y35847D01*
X28005Y35800D01*
X28495D01*
X28486Y35847D01*
X28430Y35930D01*
X28349Y35984D01*
X28343Y36015D01*
X28345Y36037D01*
X28416Y36084D01*
X28467Y36160D01*
X28485Y36250D01*
X28467Y36340D01*
X28416Y36416D01*
X28340Y36467D01*
X28300Y36475D01*
Y36525D01*
X28340Y36533D01*
X28416Y36584D01*
X28467Y36660D01*
X28485Y36750D01*
X28467Y36840D01*
X28416Y36916D01*
X28340Y36967D01*
X28300Y36975D01*
Y37025D01*
X28340Y37033D01*
X28416Y37084D01*
X28467Y37160D01*
X28485Y37250D01*
X28467Y37340D01*
X28416Y37416D01*
X28340Y37467D01*
X28300Y37475D01*
Y37525D01*
X28340Y37533D01*
X28416Y37584D01*
X28467Y37660D01*
X28485Y37750D01*
X28467Y37840D01*
X28416Y37916D01*
X28340Y37967D01*
X28250Y37984D01*
X28160Y37967D01*
X28084Y37916D01*
X28059Y37877D01*
X27516D01*
Y37993D01*
Y38493D01*
Y38993D01*
Y39493D01*
Y40007D01*
X27401D01*
X27379Y40057D01*
X27395Y40139D01*
X27388Y40177D01*
X27430Y40219D01*
X27450Y40215D01*
X27540Y40233D01*
X27549Y40239D01*
X27593Y40216D01*
Y40083D01*
X28217D01*
Y39638D01*
X28184Y39616D01*
X28133Y39540D01*
X28115Y39450D01*
X28133Y39360D01*
X28184Y39284D01*
X28260Y39233D01*
X28350Y39216D01*
X28440Y39233D01*
X28516Y39284D01*
X28567Y39360D01*
X28584Y39450D01*
X28567Y39540D01*
X28516Y39616D01*
X28482Y39638D01*
Y40083D01*
X28722D01*
Y39842D01*
X28684Y39816D01*
X28633Y39740D01*
X28615Y39650D01*
X28633Y39560D01*
X28684Y39484D01*
X28760Y39433D01*
X28850Y39416D01*
X28940Y39433D01*
X29016Y39484D01*
X29067Y39560D01*
X29074Y39600D01*
X29125D01*
X29133Y39560D01*
X29184Y39484D01*
X29260Y39433D01*
X29350Y39416D01*
X29440Y39433D01*
X29516Y39484D01*
X29567Y39560D01*
X29574Y39600D01*
X29625D01*
X29633Y39560D01*
X29684Y39484D01*
X29760Y39433D01*
X29850Y39416D01*
X29940Y39433D01*
X30016Y39484D01*
X30067Y39560D01*
X30074Y39600D01*
X30125D01*
X30133Y39560D01*
X30184Y39484D01*
X30260Y39433D01*
X30350Y39416D01*
X30440Y39433D01*
X30516Y39484D01*
X30567Y39560D01*
X30574Y39600D01*
X30625D01*
X30633Y39560D01*
X30684Y39484D01*
X30760Y39433D01*
X30850Y39416D01*
X30940Y39433D01*
X31016Y39484D01*
X31067Y39560D01*
X31074Y39600D01*
X31125D01*
X31133Y39560D01*
X31184Y39484D01*
X31260Y39433D01*
X31350Y39416D01*
X31440Y39433D01*
X31516Y39484D01*
X31567Y39560D01*
X31574Y39600D01*
X31625D01*
X31633Y39560D01*
X31684Y39484D01*
X31760Y39433D01*
X31850Y39415D01*
X31940Y39433D01*
X32016Y39484D01*
X32067Y39560D01*
X32074Y39599D01*
X32125D01*
X32133Y39560D01*
X32184Y39484D01*
X32260Y39433D01*
X32350Y39416D01*
X32440Y39433D01*
X32516Y39484D01*
X32567Y39560D01*
X32574Y39600D01*
X32625D01*
X32633Y39560D01*
X32684Y39484D01*
X32760Y39433D01*
X32850Y39415D01*
X32940Y39433D01*
X33016Y39484D01*
X33067Y39560D01*
X33075Y39600D01*
X33125D01*
X33133Y39560D01*
X33184Y39484D01*
X33260Y39433D01*
X33350Y39415D01*
X33440Y39433D01*
X33516Y39484D01*
X33567Y39560D01*
X33574Y39599D01*
X33625D01*
X33633Y39560D01*
X33684Y39484D01*
X33760Y39433D01*
X33850Y39416D01*
X33940Y39433D01*
X34016Y39484D01*
X34067Y39560D01*
X34074Y39600D01*
X34125D01*
X34133Y39560D01*
X34184Y39484D01*
X34260Y39433D01*
X34350Y39416D01*
X34440Y39433D01*
X34516Y39484D01*
X34567Y39560D01*
X34574Y39600D01*
X34625D01*
X34633Y39560D01*
X34684Y39484D01*
X34760Y39433D01*
X34850Y39416D01*
X34940Y39433D01*
X35016Y39484D01*
X35067Y39560D01*
X35074Y39600D01*
X35125D01*
X35133Y39560D01*
X35184Y39484D01*
X35260Y39433D01*
X35350Y39416D01*
X35440Y39433D01*
X35516Y39484D01*
X35567Y39560D01*
X35574Y39600D01*
X35625D01*
X35633Y39560D01*
X35684Y39484D01*
X35760Y39433D01*
X35850Y39416D01*
X35940Y39433D01*
X36016Y39484D01*
X36067Y39560D01*
X36074Y39600D01*
X36125D01*
X36133Y39560D01*
X36166Y39511D01*
Y38189D01*
X36133Y38140D01*
X36116Y38050D01*
X36133Y37960D01*
X36184Y37884D01*
X36260Y37833D01*
X36350Y37815D01*
X36440Y37833D01*
X36516Y37884D01*
X36567Y37960D01*
X36585Y38050D01*
X36567Y38140D01*
X36534Y38189D01*
Y39511D01*
X36567Y39560D01*
X36574Y39599D01*
X36625D01*
X36633Y39560D01*
X36684Y39484D01*
X36760Y39433D01*
X36850Y39416D01*
X36940Y39433D01*
X37016Y39484D01*
X37067Y39560D01*
X37074Y39600D01*
X37125D01*
X37133Y39560D01*
X37184Y39484D01*
X37232Y39452D01*
X37221Y39399D01*
X37152Y39385D01*
X37070Y39330D01*
X37015Y39248D01*
X37005Y39200D01*
X37250D01*
Y39150D01*
X37300D01*
Y38905D01*
X37348Y38914D01*
X37430Y38970D01*
X37485Y39052D01*
X37499Y39121D01*
X37552Y39132D01*
X37584Y39084D01*
X37660Y39033D01*
X37700Y39025D01*
Y38974D01*
X37660Y38966D01*
X37584Y38916D01*
X37534Y38840D01*
X37516Y38750D01*
X37534Y38660D01*
X37584Y38584D01*
X37660Y38533D01*
X37700Y38525D01*
Y38474D01*
X37660Y38466D01*
X37584Y38416D01*
X37534Y38340D01*
X37516Y38250D01*
X37534Y38160D01*
X37584Y38084D01*
X37660Y38033D01*
X37700Y38025D01*
Y37974D01*
X37660Y37966D01*
X37584Y37916D01*
X37534Y37840D01*
X37516Y37750D01*
X37534Y37660D01*
X37584Y37584D01*
X37660Y37533D01*
X37700Y37525D01*
Y37474D01*
X37660Y37466D01*
X37584Y37416D01*
X37534Y37340D01*
X37516Y37250D01*
X37534Y37160D01*
X37584Y37084D01*
X37660Y37033D01*
X37700Y37025D01*
Y36974D01*
X37660Y36966D01*
X37584Y36916D01*
X37534Y36840D01*
X37516Y36750D01*
X37534Y36660D01*
X37584Y36584D01*
X37660Y36533D01*
X37700Y36525D01*
Y36474D01*
X37660Y36466D01*
X37584Y36416D01*
X37534Y36340D01*
X37516Y36250D01*
X37534Y36160D01*
X37584Y36084D01*
X37660Y36033D01*
X37700Y36025D01*
Y35974D01*
X37660Y35966D01*
X37584Y35916D01*
X37534Y35840D01*
X37516Y35750D01*
X37534Y35660D01*
X37584Y35584D01*
X37660Y35533D01*
X37700Y35525D01*
Y35474D01*
X37660Y35466D01*
X37584Y35416D01*
X37534Y35340D01*
X37516Y35250D01*
X37534Y35160D01*
X37584Y35084D01*
X37660Y35033D01*
X37700Y35025D01*
Y34974D01*
X37660Y34966D01*
X37584Y34916D01*
X37534Y34840D01*
X37516Y34750D01*
X37534Y34660D01*
X37584Y34584D01*
X37660Y34533D01*
X37700Y34525D01*
Y34474D01*
X37660Y34466D01*
X37584Y34416D01*
X37534Y34340D01*
X37516Y34250D01*
X37534Y34160D01*
X37584Y34084D01*
X37660Y34033D01*
X37700Y34025D01*
Y33974D01*
X37660Y33966D01*
X37584Y33916D01*
X37534Y33840D01*
X37516Y33750D01*
X37534Y33660D01*
X37584Y33584D01*
X37660Y33533D01*
X37750Y33515D01*
X37840Y33533D01*
X37916Y33584D01*
X37942Y33622D01*
X38183D01*
Y33527D01*
X38163D01*
Y33433D01*
X37626D01*
X37548Y33485D01*
X37500Y33495D01*
Y33250D01*
Y33005D01*
X37548Y33014D01*
X37626Y33066D01*
X38163D01*
Y32973D01*
X38183D01*
Y32877D01*
X37941D01*
X37916Y32916D01*
X37840Y32966D01*
X37750Y32984D01*
X37660Y32966D01*
X37584Y32916D01*
X37533Y32840D01*
X37515Y32750D01*
X37533Y32660D01*
X37584Y32584D01*
X37660Y32533D01*
X37700Y32525D01*
Y32474D01*
X37660Y32466D01*
X37584Y32416D01*
X37534Y32340D01*
X37516Y32250D01*
X37534Y32160D01*
X37584Y32084D01*
X37660Y32033D01*
X37700Y32025D01*
Y31974D01*
X37660Y31966D01*
X37584Y31916D01*
X37533Y31840D01*
X37515Y31750D01*
X37533Y31660D01*
X37584Y31584D01*
X37660Y31533D01*
X37700Y31525D01*
Y31474D01*
X37660Y31466D01*
X37584Y31416D01*
X37534Y31340D01*
X37516Y31250D01*
X37534Y31160D01*
X37584Y31084D01*
X37660Y31033D01*
X37700Y31025D01*
Y30974D01*
X37660Y30966D01*
X37584Y30916D01*
X37533Y30840D01*
X37515Y30750D01*
X37533Y30660D01*
X37584Y30584D01*
X37660Y30533D01*
X37700Y30525D01*
Y30474D01*
X37660Y30466D01*
X37584Y30416D01*
X37548Y30362D01*
X37501Y30381D01*
X37505Y30400D01*
X37485Y30498D01*
X37430Y30580D01*
X37348Y30635D01*
X37300Y30645D01*
Y30400D01*
X37250D01*
Y30350D01*
X37005D01*
X37015Y30302D01*
X37070Y30220D01*
X37152Y30164D01*
X37221Y30151D01*
X37232Y30098D01*
X37184Y30066D01*
X37133Y29990D01*
X37125Y29950D01*
X37074D01*
X37067Y29990D01*
X37016Y30066D01*
X36940Y30117D01*
X36850Y30134D01*
X36760Y30117D01*
X36684Y30066D01*
X36633Y29990D01*
X36625Y29950D01*
X36574D01*
X36567Y29990D01*
X36516Y30066D01*
X36440Y30117D01*
X36350Y30134D01*
X36260Y30117D01*
X36184Y30066D01*
X36133Y29990D01*
X36125Y29950D01*
X36074D01*
X36067Y29990D01*
X36016Y30066D01*
X35940Y30117D01*
X35850Y30134D01*
X35760Y30117D01*
X35684Y30066D01*
X35633Y29990D01*
X35625Y29950D01*
X35574D01*
X35567Y29990D01*
X35516Y30066D01*
X35440Y30117D01*
X35350Y30134D01*
X35260Y30117D01*
X35184Y30066D01*
X35133Y29990D01*
X35125Y29950D01*
X35074D01*
X35067Y29990D01*
X35016Y30066D01*
X34940Y30117D01*
X34850Y30134D01*
X34760Y30117D01*
X34684Y30066D01*
X34633Y29990D01*
X34625Y29950D01*
X34574D01*
X34567Y29990D01*
X34516Y30066D01*
X34440Y30117D01*
X34350Y30134D01*
X34260Y30117D01*
X34184Y30066D01*
X34133Y29990D01*
X34125Y29950D01*
X34074D01*
X34067Y29990D01*
X34016Y30066D01*
X33940Y30117D01*
X33850Y30134D01*
X33760Y30117D01*
X33684Y30066D01*
X33633Y29990D01*
X33625Y29950D01*
X33574D01*
X33567Y29990D01*
X33516Y30066D01*
X33440Y30117D01*
X33350Y30134D01*
X33260Y30117D01*
X33184Y30066D01*
X33133Y29990D01*
X33125Y29950D01*
X33074D01*
X33067Y29990D01*
X33016Y30066D01*
X32940Y30117D01*
X32850Y30134D01*
X32760Y30117D01*
X32684Y30066D01*
X32633Y29990D01*
X32625Y29950D01*
X32574D01*
X32567Y29990D01*
X32516Y30066D01*
X32440Y30117D01*
X32350Y30134D01*
X32260Y30117D01*
X32184Y30066D01*
X32133Y29990D01*
X32125Y29950D01*
X32074D01*
X32067Y29990D01*
X32016Y30066D01*
X31940Y30117D01*
X31850Y30134D01*
X31760Y30117D01*
X31684Y30066D01*
X31633Y29990D01*
X31625Y29950D01*
X31574D01*
X31567Y29990D01*
X31516Y30066D01*
X31440Y30117D01*
X31350Y30134D01*
X31260Y30117D01*
X31184Y30066D01*
X31133Y29990D01*
X31125Y29950D01*
X31074D01*
X31067Y29990D01*
X31016Y30066D01*
X30940Y30117D01*
X30850Y30134D01*
X30760Y30117D01*
X30684Y30066D01*
X30633Y29990D01*
X30625Y29950D01*
X30574D01*
X30567Y29990D01*
X30516Y30066D01*
X30440Y30117D01*
X30350Y30134D01*
X30260Y30117D01*
X30184Y30066D01*
X30137Y29995D01*
X30113Y29994D01*
X30084Y29999D01*
X30030Y30080D01*
X29948Y30135D01*
X29900Y30145D01*
Y29900D01*
Y29655D01*
X29948Y29664D01*
X30030Y29720D01*
X30084Y29800D01*
X30113Y29806D01*
X30137Y29805D01*
X30184Y29734D01*
X30222Y29708D01*
Y29416D01*
X30127D01*
Y29436D01*
X29900D01*
Y28441D01*
Y27445D01*
X30127D01*
Y27465D01*
X38107D01*
Y28834D01*
X38151Y28858D01*
X38171Y28844D01*
X38261Y28826D01*
X38351Y28844D01*
X38427Y28895D01*
X38478Y28971D01*
X38495Y29061D01*
X38493Y29071D01*
X38529Y29106D01*
X38539Y29104D01*
X38629Y29122D01*
X38705Y29173D01*
X38756Y29249D01*
X38773Y29339D01*
X38756Y29429D01*
X38742Y29449D01*
X38766Y29493D01*
X40135D01*
Y29993D01*
Y30493D01*
Y30993D01*
Y31493D01*
Y31993D01*
Y32493D01*
Y32973D01*
X40155D01*
Y33200D01*
X39159D01*
Y33300D01*
X40155D01*
Y33527D01*
X40135D01*
Y33993D01*
Y34493D01*
Y34993D01*
Y35493D01*
Y35993D01*
Y36493D01*
Y36993D01*
Y37493D01*
Y37993D01*
Y38493D01*
Y38993D01*
Y39493D01*
Y40007D01*
X38781D01*
X38757Y40057D01*
X38773Y40139D01*
X38756Y40229D01*
X38705Y40305D01*
X38629Y40355D01*
X38539Y40373D01*
X38501Y40366D01*
X38466Y40401D01*
X38473Y40439D01*
X38455Y40529D01*
X38405Y40605D01*
X38329Y40655D01*
X38239Y40673D01*
X38157Y40657D01*
X38107Y40681D01*
Y42035D01*
X36709D01*
X36690Y42081D01*
X36826Y42216D01*
X40574D01*
X41091Y41699D01*
Y40715D01*
X40929D01*
Y39985D01*
X41091D01*
Y39739D01*
X41058Y39690D01*
X41040Y39600D01*
X41058Y39510D01*
X41091Y39461D01*
Y38215D01*
X40929D01*
Y37485D01*
X41091D01*
Y37239D01*
X41058Y37190D01*
X41040Y37100D01*
X41058Y37010D01*
X41091Y36961D01*
Y32965D01*
X40929D01*
Y32235D01*
X41091D01*
Y32139D01*
X41058Y32090D01*
X41040Y32000D01*
X41058Y31910D01*
X41091Y31861D01*
Y30865D01*
X40879D01*
Y30135D01*
X41091D01*
Y29764D01*
X41058Y29715D01*
X41040Y29625D01*
X41058Y29535D01*
X41109Y29459D01*
X41185Y29408D01*
X41275Y29390D01*
X41365Y29408D01*
X41441Y29459D01*
X41491Y29535D01*
X41509Y29625D01*
X41491Y29715D01*
X41458Y29764D01*
Y30135D01*
X41509D01*
Y30115D01*
X41825D01*
Y30500D01*
Y30885D01*
X41509D01*
Y30865D01*
X41458D01*
Y31861D01*
X41491Y31910D01*
X41509Y32000D01*
X41491Y32090D01*
X41458Y32139D01*
Y32235D01*
X41559D01*
Y32215D01*
X41875D01*
Y32600D01*
Y32985D01*
X41559D01*
Y32965D01*
X41458D01*
Y36961D01*
X41491Y37010D01*
X41509Y37100D01*
X41491Y37190D01*
X41458Y37239D01*
Y37485D01*
X41559D01*
Y37465D01*
X41875D01*
Y37850D01*
Y38235D01*
X41559D01*
Y38215D01*
X41458D01*
Y39416D01*
X42885D01*
Y39279D01*
X43615D01*
Y39416D01*
X43795D01*
X43837Y39408D01*
X44211D01*
X44284Y39423D01*
X44347Y39464D01*
X44388Y39527D01*
X44403Y39600D01*
X44388Y39673D01*
X44347Y39736D01*
X44284Y39777D01*
X44211Y39792D01*
X43837D01*
X43795Y39784D01*
X43615D01*
Y39909D01*
X43635D01*
Y40225D01*
X42865D01*
Y39909D01*
X42885D01*
Y39784D01*
X41458D01*
Y39985D01*
X41559D01*
Y39965D01*
X41875D01*
Y40350D01*
Y40735D01*
X41559D01*
Y40715D01*
X41458D01*
Y41775D01*
X41447Y41834D01*
X41444Y41845D01*
X41405Y41905D01*
X40827Y42483D01*
X40848Y42533D01*
X44266D01*
X44873Y41926D01*
Y40150D01*
X44882Y40101D01*
X44873Y40079D01*
X44810Y40067D01*
X44734Y40016D01*
X44683Y39940D01*
X44665Y39850D01*
X44683Y39760D01*
X44734Y39684D01*
X44773Y39659D01*
Y34253D01*
X44247Y33727D01*
X43191D01*
X43166Y33766D01*
X43090Y33817D01*
X43000Y33835D01*
X42910Y33817D01*
X42834Y33766D01*
X42783Y33690D01*
X42765Y33600D01*
X42783Y33510D01*
X42834Y33434D01*
X42910Y33383D01*
X43000Y33365D01*
X43090Y33383D01*
X43166Y33434D01*
X43191Y33473D01*
X44300D01*
X44349Y33482D01*
X44390Y33510D01*
X44990Y34110D01*
X45018Y34151D01*
X45027Y34200D01*
Y39635D01*
X45053Y39653D01*
X45103Y39626D01*
Y39130D01*
X45112Y39081D01*
X45140Y39039D01*
X45641Y38539D01*
X45660Y38510D01*
X45701Y38482D01*
X45750Y38473D01*
X45822D01*
X45827Y38464D01*
X45890Y38423D01*
X45963Y38408D01*
X46337D01*
X46410Y38423D01*
X46473Y38464D01*
X46478Y38473D01*
X46500D01*
X46549Y38482D01*
X46590Y38510D01*
X46624Y38544D01*
X46670Y38524D01*
Y38270D01*
Y38227D01*
X46478D01*
X46473Y38236D01*
X46410Y38277D01*
X46337Y38292D01*
X45963D01*
X45890Y38277D01*
X45827Y38236D01*
X45786Y38173D01*
X45771Y38100D01*
X45786Y38027D01*
X45827Y37964D01*
X45890Y37923D01*
X45963Y37908D01*
X46337D01*
X46410Y37923D01*
X46473Y37964D01*
X46478Y37973D01*
X46670D01*
Y37920D01*
X47230D01*
Y38270D01*
Y38329D01*
X47249Y38332D01*
X47290Y38360D01*
X47404Y38474D01*
X47432Y38515D01*
X47442Y38564D01*
Y40585D01*
X47601D01*
Y41315D01*
X47601D01*
X47603Y41365D01*
X47621D01*
Y41700D01*
X47265D01*
Y41750D01*
X47215D01*
Y42135D01*
X46909D01*
Y42115D01*
X46762D01*
X46753Y42164D01*
X46725Y42205D01*
X45340Y43590D01*
X45299Y43618D01*
X45250Y43627D01*
X25300D01*
X25251Y43618D01*
X25210Y43590D01*
X24060Y42440D01*
X24032Y42399D01*
X24023Y42350D01*
Y40691D01*
X23984Y40666D01*
X23950Y40615D01*
X23900Y40630D01*
Y43700D01*
X47750D01*
Y25800D01*
D02*
G37*
G36*
X45872Y42698D02*
X45845Y42654D01*
X45752Y42635D01*
X45670Y42580D01*
X45615Y42498D01*
X45605Y42450D01*
X45850D01*
Y42350D01*
X45605D01*
X45606Y42345D01*
X45560Y42320D01*
X44610Y43270D01*
X44569Y43298D01*
X44520Y43307D01*
X26290D01*
X26241Y43298D01*
X26199Y43270D01*
X24365Y41436D01*
X24337Y41394D01*
X24328Y41345D01*
Y40776D01*
X24278Y40748D01*
X24277Y40748D01*
Y42297D01*
X25353Y43373D01*
X45197D01*
X45872Y42698D01*
D02*
G37*
%LPC*%
G36*
X25000Y34650D02*
X24805D01*
X24815Y34602D01*
X24870Y34520D01*
X24952Y34464D01*
X25000Y34455D01*
Y34650D01*
D02*
G37*
G36*
X37400Y33200D02*
X37205D01*
X37215Y33152D01*
X37270Y33070D01*
X37353Y33014D01*
X37400Y33005D01*
Y33200D01*
D02*
G37*
G36*
Y33495D02*
X37353Y33485D01*
X37270Y33430D01*
X37215Y33347D01*
X37205Y33300D01*
X37400D01*
Y33495D01*
D02*
G37*
G36*
X47100Y33345D02*
Y33150D01*
X47295D01*
X47285Y33198D01*
X47230Y33280D01*
X47148Y33335D01*
X47100Y33345D01*
D02*
G37*
G36*
X47000D02*
X46952Y33335D01*
X46870Y33280D01*
X46815Y33198D01*
X46805Y33150D01*
X47000D01*
Y33345D01*
D02*
G37*
G36*
X42291Y32550D02*
X41975D01*
Y32215D01*
X42291D01*
Y32550D01*
D02*
G37*
G36*
Y32985D02*
X41975D01*
Y32650D01*
X42291D01*
Y32985D01*
D02*
G37*
G36*
X37200Y30645D02*
X37152Y30635D01*
X37070Y30580D01*
X37015Y30498D01*
X37005Y30450D01*
X37200D01*
Y30645D01*
D02*
G37*
G36*
X42241Y30885D02*
X41925D01*
Y30550D01*
X42241D01*
Y30885D01*
D02*
G37*
G36*
X47000Y33050D02*
X46805D01*
X46815Y33002D01*
X46870Y32920D01*
X46952Y32864D01*
X47000Y32855D01*
Y33050D01*
D02*
G37*
G36*
X47295D02*
X47100D01*
Y32855D01*
X47148Y32864D01*
X47230Y32920D01*
X47285Y33002D01*
X47295Y33050D01*
D02*
G37*
G36*
X43150Y32845D02*
X43102Y32835D01*
X43020Y32780D01*
X42965Y32698D01*
X42955Y32650D01*
X43150D01*
Y32845D01*
D02*
G37*
G36*
X43250D02*
Y32650D01*
X43445D01*
X43436Y32698D01*
X43380Y32780D01*
X43298Y32835D01*
X43250Y32845D01*
D02*
G37*
G36*
X46337Y36312D02*
X46200D01*
Y36150D01*
X46539D01*
X46533Y36181D01*
X46487Y36250D01*
X46418Y36296D01*
X46337Y36312D01*
D02*
G37*
G36*
X40550Y36395D02*
X40502Y36385D01*
X40420Y36330D01*
X40365Y36248D01*
X40355Y36200D01*
X40550D01*
Y36395D01*
D02*
G37*
G36*
X44211Y36292D02*
X43837D01*
X43764Y36277D01*
X43701Y36236D01*
X43660Y36173D01*
X43645Y36100D01*
X43660Y36027D01*
X43701Y35964D01*
X43764Y35923D01*
X43837Y35908D01*
X44211D01*
X44284Y35923D01*
X44347Y35964D01*
X44388Y36027D01*
X44403Y36100D01*
X44388Y36173D01*
X44347Y36236D01*
X44284Y36277D01*
X44211Y36292D01*
D02*
G37*
G36*
X46100Y36312D02*
X45963D01*
X45882Y36296D01*
X45813Y36250D01*
X45767Y36181D01*
X45761Y36150D01*
X46100D01*
Y36312D01*
D02*
G37*
G36*
X44413Y36550D02*
X44074D01*
Y36388D01*
X44211D01*
X44292Y36404D01*
X44361Y36450D01*
X44407Y36519D01*
X44413Y36550D01*
D02*
G37*
G36*
X46337Y36792D02*
X45963D01*
X45890Y36777D01*
X45827Y36736D01*
X45786Y36673D01*
X45771Y36600D01*
X45786Y36527D01*
X45827Y36464D01*
X45890Y36423D01*
X45963Y36408D01*
X46337D01*
X46410Y36423D01*
X46473Y36464D01*
X46514Y36527D01*
X46529Y36600D01*
X46514Y36673D01*
X46473Y36736D01*
X46410Y36777D01*
X46337Y36792D01*
D02*
G37*
G36*
X40650Y36395D02*
Y36200D01*
X40845D01*
X40835Y36248D01*
X40780Y36330D01*
X40698Y36385D01*
X40650Y36395D01*
D02*
G37*
G36*
X43974Y36550D02*
X43635D01*
X43641Y36519D01*
X43687Y36450D01*
X43756Y36404D01*
X43837Y36388D01*
X43974D01*
Y36550D01*
D02*
G37*
G36*
X40845Y36100D02*
X40650D01*
Y35905D01*
X40698Y35914D01*
X40780Y35970D01*
X40835Y36052D01*
X40845Y36100D01*
D02*
G37*
G36*
X25100Y34945D02*
Y34750D01*
X25295D01*
X25285Y34798D01*
X25230Y34880D01*
X25148Y34935D01*
X25100Y34945D01*
D02*
G37*
G36*
X28200Y35700D02*
X28005D01*
X28015Y35652D01*
X28070Y35570D01*
X28153Y35514D01*
X28200Y35505D01*
Y35700D01*
D02*
G37*
G36*
X25295Y34650D02*
X25100D01*
Y34455D01*
X25148Y34464D01*
X25230Y34520D01*
X25285Y34602D01*
X25295Y34650D01*
D02*
G37*
G36*
X25000Y34945D02*
X24952Y34935D01*
X24870Y34880D01*
X24815Y34798D01*
X24805Y34750D01*
X25000D01*
Y34945D01*
D02*
G37*
G36*
X46539Y36050D02*
X46200D01*
Y35888D01*
X46337D01*
X46418Y35904D01*
X46487Y35950D01*
X46533Y36019D01*
X46539Y36050D01*
D02*
G37*
G36*
X40550Y36100D02*
X40355D01*
X40365Y36052D01*
X40420Y35970D01*
X40502Y35914D01*
X40550Y35905D01*
Y36100D01*
D02*
G37*
G36*
X28495Y35700D02*
X28300D01*
Y35505D01*
X28348Y35514D01*
X28430Y35570D01*
X28486Y35652D01*
X28495Y35700D01*
D02*
G37*
G36*
X46100Y36050D02*
X45761D01*
X45767Y36019D01*
X45813Y35950D01*
X45882Y35904D01*
X45963Y35888D01*
X46100D01*
Y36050D01*
D02*
G37*
G36*
X28800Y30395D02*
Y30200D01*
X28995D01*
X28986Y30248D01*
X28930Y30330D01*
X28848Y30385D01*
X28800Y30395D01*
D02*
G37*
G36*
X45495Y28100D02*
X45300D01*
Y27905D01*
X45348Y27915D01*
X45430Y27970D01*
X45486Y28052D01*
X45495Y28100D01*
D02*
G37*
G36*
X45200D02*
X45005D01*
X45015Y28052D01*
X45070Y27970D01*
X45152Y27915D01*
X45200Y27905D01*
Y28100D01*
D02*
G37*
G36*
X29350Y31284D02*
X29260Y31267D01*
X29184Y31216D01*
X29133Y31140D01*
X29115Y31050D01*
X29133Y30960D01*
X29166Y30911D01*
Y29416D01*
X27593D01*
Y27465D01*
X27666D01*
Y27250D01*
X27678Y27192D01*
X27680Y27180D01*
X27720Y27120D01*
X27870Y26970D01*
X27930Y26930D01*
X28000Y26916D01*
X29250D01*
X29309Y26928D01*
X29320Y26930D01*
X29380Y26970D01*
X29480Y27070D01*
X29519Y27130D01*
X29522Y27141D01*
X29533Y27200D01*
Y27419D01*
X29573Y27445D01*
X29800D01*
Y28441D01*
Y29436D01*
X29573D01*
X29533Y29462D01*
Y30911D01*
X29567Y30960D01*
X29584Y31050D01*
X29567Y31140D01*
X29516Y31216D01*
X29440Y31267D01*
X29350Y31284D01*
D02*
G37*
G36*
X24450Y28350D02*
X24255D01*
X24265Y28302D01*
X24320Y28220D01*
X24402Y28165D01*
X24450Y28155D01*
Y28350D01*
D02*
G37*
G36*
X41245D02*
X41050D01*
Y28155D01*
X41098Y28165D01*
X41180Y28220D01*
X41235Y28302D01*
X41245Y28350D01*
D02*
G37*
G36*
X40950D02*
X40755D01*
X40765Y28302D01*
X40820Y28220D01*
X40902Y28165D01*
X40950Y28155D01*
Y28350D01*
D02*
G37*
G36*
X24745D02*
X24550D01*
Y28155D01*
X24598Y28165D01*
X24680Y28220D01*
X24736Y28302D01*
X24745Y28350D01*
D02*
G37*
G36*
X43550Y26645D02*
Y26450D01*
X43745D01*
X43735Y26498D01*
X43680Y26580D01*
X43598Y26635D01*
X43550Y26645D01*
D02*
G37*
G36*
X43450Y26350D02*
X43255D01*
X43265Y26302D01*
X43320Y26220D01*
X43402Y26165D01*
X43450Y26155D01*
Y26350D01*
D02*
G37*
G36*
X26745Y26100D02*
X26550D01*
Y25905D01*
X26598Y25914D01*
X26680Y25970D01*
X26735Y26052D01*
X26745Y26100D01*
D02*
G37*
G36*
X26450D02*
X26255D01*
X26265Y26052D01*
X26320Y25970D01*
X26402Y25914D01*
X26450Y25905D01*
Y26100D01*
D02*
G37*
G36*
X43745Y26350D02*
X43550D01*
Y26155D01*
X43598Y26165D01*
X43680Y26220D01*
X43735Y26302D01*
X43745Y26350D01*
D02*
G37*
G36*
X43450Y26645D02*
X43402Y26635D01*
X43320Y26580D01*
X43265Y26498D01*
X43255Y26450D01*
X43450D01*
Y26645D01*
D02*
G37*
G36*
X26550Y26395D02*
Y26200D01*
X26745D01*
X26735Y26248D01*
X26680Y26330D01*
X26598Y26385D01*
X26550Y26395D01*
D02*
G37*
G36*
X26450D02*
X26402Y26385D01*
X26320Y26330D01*
X26265Y26248D01*
X26255Y26200D01*
X26450D01*
Y26395D01*
D02*
G37*
G36*
X45200Y28395D02*
X45152Y28385D01*
X45070Y28330D01*
X45015Y28248D01*
X45005Y28200D01*
X45200D01*
Y28395D01*
D02*
G37*
G36*
X29800Y29850D02*
X29605D01*
X29615Y29802D01*
X29670Y29720D01*
X29752Y29664D01*
X29800Y29655D01*
Y29850D01*
D02*
G37*
G36*
X47100Y29845D02*
Y29650D01*
X47295D01*
X47285Y29698D01*
X47230Y29780D01*
X47148Y29835D01*
X47100Y29845D01*
D02*
G37*
G36*
X47000D02*
X46952Y29835D01*
X46870Y29780D01*
X46815Y29698D01*
X46805Y29650D01*
X47000D01*
Y29845D01*
D02*
G37*
G36*
X27536Y35200D02*
X25545D01*
Y34973D01*
X25565D01*
Y34493D01*
Y33993D01*
Y33493D01*
Y32993D01*
Y32493D01*
Y31993D01*
Y31493D01*
Y30993D01*
Y30493D01*
Y29993D01*
Y29493D01*
X27516D01*
Y29622D01*
X28002D01*
X28060Y29583D01*
X28150Y29565D01*
X28240Y29583D01*
X28316Y29634D01*
X28367Y29710D01*
X28385Y29800D01*
X28367Y29890D01*
X28316Y29966D01*
X28302Y29975D01*
X28313Y30028D01*
X28340Y30033D01*
X28416Y30084D01*
X28448Y30132D01*
X28501Y30121D01*
X28515Y30052D01*
X28570Y29970D01*
X28652Y29915D01*
X28700Y29905D01*
Y30150D01*
Y30395D01*
X28652Y30385D01*
X28570Y30330D01*
X28531Y30272D01*
X28478Y30283D01*
X28467Y30340D01*
X28416Y30416D01*
X28340Y30467D01*
X28300Y30475D01*
Y30525D01*
X28340Y30533D01*
X28416Y30584D01*
X28467Y30660D01*
X28485Y30750D01*
X28467Y30840D01*
X28416Y30916D01*
X28340Y30967D01*
X28300Y30975D01*
Y31025D01*
X28340Y31033D01*
X28416Y31084D01*
X28467Y31160D01*
X28485Y31250D01*
X28467Y31340D01*
X28416Y31416D01*
X28340Y31467D01*
X28300Y31475D01*
Y31525D01*
X28340Y31533D01*
X28416Y31584D01*
X28467Y31660D01*
X28485Y31750D01*
X28467Y31840D01*
X28416Y31916D01*
X28340Y31967D01*
X28300Y31975D01*
Y32025D01*
X28340Y32033D01*
X28416Y32084D01*
X28467Y32160D01*
X28485Y32250D01*
X28467Y32340D01*
X28416Y32416D01*
X28340Y32467D01*
X28300Y32475D01*
Y32525D01*
X28340Y32533D01*
X28416Y32584D01*
X28467Y32660D01*
X28485Y32750D01*
X28467Y32840D01*
X28416Y32916D01*
X28340Y32967D01*
X28300Y32975D01*
Y33025D01*
X28340Y33033D01*
X28416Y33084D01*
X28467Y33160D01*
X28485Y33250D01*
X28467Y33340D01*
X28416Y33416D01*
X28340Y33467D01*
X28300Y33475D01*
Y33525D01*
X28340Y33533D01*
X28416Y33584D01*
X28467Y33660D01*
X28485Y33750D01*
X28467Y33840D01*
X28416Y33916D01*
X28340Y33967D01*
X28300Y33975D01*
Y34025D01*
X28340Y34033D01*
X28416Y34084D01*
X28467Y34160D01*
X28485Y34250D01*
X28467Y34340D01*
X28416Y34416D01*
X28340Y34467D01*
X28300Y34475D01*
Y34525D01*
X28340Y34533D01*
X28416Y34584D01*
X28467Y34660D01*
X28485Y34750D01*
X28467Y34840D01*
X28416Y34916D01*
X28340Y34967D01*
X28250Y34985D01*
X28160Y34967D01*
X28084Y34916D01*
X28059Y34877D01*
X27516D01*
Y34973D01*
X27536D01*
Y35200D01*
D02*
G37*
G36*
X42241Y30450D02*
X41925D01*
Y30115D01*
X42241D01*
Y30450D01*
D02*
G37*
G36*
X29800Y30145D02*
X29752Y30135D01*
X29670Y30080D01*
X29615Y29998D01*
X29605Y29950D01*
X29800D01*
Y30145D01*
D02*
G37*
G36*
X28995Y30100D02*
X28800D01*
Y29905D01*
X28848Y29915D01*
X28930Y29970D01*
X28986Y30052D01*
X28995Y30100D01*
D02*
G37*
G36*
X47295Y29550D02*
X47100D01*
Y29355D01*
X47148Y29365D01*
X47230Y29420D01*
X47285Y29502D01*
X47295Y29550D01*
D02*
G37*
G36*
X24550Y28645D02*
Y28450D01*
X24745D01*
X24736Y28498D01*
X24680Y28580D01*
X24598Y28635D01*
X24550Y28645D01*
D02*
G37*
G36*
X24450D02*
X24402Y28635D01*
X24320Y28580D01*
X24265Y28498D01*
X24255Y28450D01*
X24450D01*
Y28645D01*
D02*
G37*
G36*
X45300Y28395D02*
Y28200D01*
X45495D01*
X45486Y28248D01*
X45430Y28330D01*
X45348Y28385D01*
X45300Y28395D01*
D02*
G37*
G36*
X40950Y28645D02*
X40902Y28635D01*
X40820Y28580D01*
X40765Y28498D01*
X40755Y28450D01*
X40950D01*
Y28645D01*
D02*
G37*
G36*
X47000Y29550D02*
X46805D01*
X46815Y29502D01*
X46870Y29420D01*
X46952Y29365D01*
X47000Y29355D01*
Y29550D01*
D02*
G37*
G36*
X43445Y32550D02*
X42955D01*
X42965Y32502D01*
X43020Y32420D01*
X43102Y32364D01*
X43114Y32336D01*
X43083Y32290D01*
X43066Y32200D01*
X43083Y32110D01*
X43134Y32034D01*
X43173Y32009D01*
Y29691D01*
X43134Y29666D01*
X43083Y29590D01*
X43066Y29500D01*
X43083Y29410D01*
X43134Y29334D01*
X43148Y29325D01*
X43137Y29272D01*
X43110Y29267D01*
X43034Y29216D01*
X42983Y29140D01*
X42965Y29050D01*
X42983Y28960D01*
X43034Y28884D01*
X43110Y28833D01*
X43200Y28815D01*
X43290Y28833D01*
X43366Y28884D01*
X43417Y28960D01*
X43435Y29050D01*
X43432Y29063D01*
X43940Y29571D01*
X43968Y29612D01*
X43977Y29661D01*
Y32009D01*
X44016Y32034D01*
X44067Y32110D01*
X44085Y32200D01*
X44067Y32290D01*
X44016Y32366D01*
X43940Y32417D01*
X43850Y32434D01*
X43760Y32417D01*
X43684Y32366D01*
X43633Y32290D01*
X43615Y32200D01*
X43633Y32110D01*
X43684Y32034D01*
X43723Y32009D01*
Y29714D01*
X43568Y29559D01*
X43520Y29574D01*
X43517Y29590D01*
X43466Y29666D01*
X43427Y29691D01*
Y32009D01*
X43466Y32034D01*
X43517Y32110D01*
X43535Y32200D01*
X43517Y32290D01*
X43466Y32366D01*
X43423Y32394D01*
X43407Y32460D01*
X43407Y32460D01*
X43436Y32502D01*
X43445Y32550D01*
D02*
G37*
G36*
X41050Y28645D02*
Y28450D01*
X41245D01*
X41235Y28498D01*
X41180Y28580D01*
X41098Y28635D01*
X41050Y28645D01*
D02*
G37*
G36*
X43974Y36812D02*
X43837D01*
X43756Y36796D01*
X43687Y36750D01*
X43641Y36681D01*
X43635Y36650D01*
X43974D01*
Y36812D01*
D02*
G37*
G36*
X40550Y39400D02*
X40355D01*
X40365Y39352D01*
X40420Y39270D01*
X40502Y39214D01*
X40550Y39205D01*
Y39400D01*
D02*
G37*
G36*
X44211Y39312D02*
X44074D01*
Y39150D01*
X44413D01*
X44407Y39181D01*
X44361Y39250D01*
X44292Y39296D01*
X44211Y39312D01*
D02*
G37*
G36*
X43974D02*
X43837D01*
X43756Y39296D01*
X43687Y39250D01*
X43641Y39181D01*
X43635Y39150D01*
X43974D01*
Y39312D01*
D02*
G37*
G36*
X40845Y39400D02*
X40650D01*
Y39205D01*
X40698Y39214D01*
X40780Y39270D01*
X40835Y39352D01*
X40845Y39400D01*
D02*
G37*
G36*
X42291Y40300D02*
X41975D01*
Y39965D01*
X42291D01*
Y40300D01*
D02*
G37*
G36*
X40650Y39695D02*
Y39500D01*
X40845D01*
X40835Y39548D01*
X40780Y39630D01*
X40698Y39685D01*
X40650Y39695D01*
D02*
G37*
G36*
X40550D02*
X40502Y39685D01*
X40420Y39630D01*
X40365Y39548D01*
X40355Y39500D01*
X40550D01*
Y39695D01*
D02*
G37*
G36*
X28550Y39145D02*
Y38950D01*
X28745D01*
X28735Y38998D01*
X28680Y39080D01*
X28598Y39135D01*
X28550Y39145D01*
D02*
G37*
G36*
X28745Y38850D02*
X28550D01*
Y38655D01*
X28598Y38665D01*
X28680Y38720D01*
X28735Y38802D01*
X28745Y38850D01*
D02*
G37*
G36*
X28450D02*
X28255D01*
X28265Y38802D01*
X28320Y38720D01*
X28402Y38665D01*
X28450Y38655D01*
Y38850D01*
D02*
G37*
G36*
X44211Y38812D02*
X44074D01*
Y38650D01*
X44413D01*
X44407Y38681D01*
X44361Y38750D01*
X44292Y38796D01*
X44211Y38812D01*
D02*
G37*
G36*
X43974Y39050D02*
X43635D01*
X43641Y39019D01*
X43687Y38950D01*
X43756Y38904D01*
X43837Y38888D01*
X43974D01*
Y39050D01*
D02*
G37*
G36*
X28450Y39145D02*
X28402Y39135D01*
X28320Y39080D01*
X28265Y38998D01*
X28255Y38950D01*
X28450D01*
Y39145D01*
D02*
G37*
G36*
X37200Y39100D02*
X37005D01*
X37015Y39052D01*
X37070Y38970D01*
X37152Y38914D01*
X37200Y38905D01*
Y39100D01*
D02*
G37*
G36*
X44413Y39050D02*
X44074D01*
Y38888D01*
X44211D01*
X44292Y38904D01*
X44361Y38950D01*
X44407Y39019D01*
X44413Y39050D01*
D02*
G37*
G36*
X43200Y40641D02*
X42865D01*
Y40325D01*
X43200D01*
Y40641D01*
D02*
G37*
G36*
X47621Y42135D02*
X47315D01*
Y41800D01*
X47621D01*
Y42135D01*
D02*
G37*
G36*
X26150Y41895D02*
Y41700D01*
X26345D01*
X26335Y41748D01*
X26280Y41830D01*
X26198Y41885D01*
X26150Y41895D01*
D02*
G37*
G36*
X26050D02*
X26002Y41885D01*
X25920Y41830D01*
X25865Y41748D01*
X25855Y41700D01*
X26050D01*
Y41895D01*
D02*
G37*
G36*
X24950Y42500D02*
X24755D01*
X24765Y42452D01*
X24820Y42370D01*
X24902Y42315D01*
X24950Y42305D01*
Y42500D01*
D02*
G37*
G36*
X25050Y42795D02*
Y42600D01*
X25245D01*
X25236Y42648D01*
X25180Y42730D01*
X25098Y42785D01*
X25050Y42795D01*
D02*
G37*
G36*
X24950D02*
X24902Y42785D01*
X24820Y42730D01*
X24765Y42648D01*
X24755Y42600D01*
X24950D01*
Y42795D01*
D02*
G37*
G36*
X25245Y42500D02*
X25050D01*
Y42305D01*
X25098Y42315D01*
X25180Y42370D01*
X25236Y42452D01*
X25245Y42500D01*
D02*
G37*
G36*
X26345Y41600D02*
X26150D01*
Y41405D01*
X26198Y41414D01*
X26280Y41470D01*
X26335Y41552D01*
X26345Y41600D01*
D02*
G37*
G36*
X38900Y40700D02*
X38705D01*
X38715Y40652D01*
X38770Y40570D01*
X38852Y40514D01*
X38900Y40505D01*
Y40700D01*
D02*
G37*
G36*
X42291Y40735D02*
X41975D01*
Y40400D01*
X42291D01*
Y40735D01*
D02*
G37*
G36*
X43635Y40641D02*
X43300D01*
Y40325D01*
X43635D01*
Y40641D01*
D02*
G37*
G36*
X39195Y40700D02*
X39000D01*
Y40505D01*
X39048Y40514D01*
X39130Y40570D01*
X39186Y40652D01*
X39195Y40700D01*
D02*
G37*
G36*
X26050Y41600D02*
X25855D01*
X25865Y41552D01*
X25920Y41470D01*
X26002Y41414D01*
X26050Y41405D01*
Y41600D01*
D02*
G37*
G36*
X39000Y40995D02*
Y40800D01*
X39195D01*
X39186Y40848D01*
X39130Y40930D01*
X39048Y40985D01*
X39000Y40995D01*
D02*
G37*
G36*
X38900D02*
X38852Y40985D01*
X38770Y40930D01*
X38715Y40848D01*
X38705Y40800D01*
X38900D01*
Y40995D01*
D02*
G37*
G36*
X43974Y38812D02*
X43837D01*
X43756Y38796D01*
X43687Y38750D01*
X43641Y38681D01*
X43635Y38650D01*
X43974D01*
Y38812D01*
D02*
G37*
G36*
X46337Y37312D02*
X46200D01*
Y37150D01*
X46539D01*
X46533Y37181D01*
X46487Y37250D01*
X46418Y37296D01*
X46337Y37312D01*
D02*
G37*
G36*
X46100D02*
X45963D01*
X45882Y37296D01*
X45813Y37250D01*
X45767Y37181D01*
X45761Y37150D01*
X46100D01*
Y37312D01*
D02*
G37*
G36*
X44211D02*
X44074D01*
Y37150D01*
X44413D01*
X44407Y37181D01*
X44361Y37250D01*
X44292Y37296D01*
X44211Y37312D01*
D02*
G37*
G36*
X47000Y37345D02*
X46952Y37335D01*
X46870Y37280D01*
X46815Y37198D01*
X46805Y37150D01*
X47000D01*
Y37345D01*
D02*
G37*
G36*
X46100Y37550D02*
X45761D01*
X45767Y37519D01*
X45813Y37450D01*
X45882Y37404D01*
X45963Y37388D01*
X46100D01*
Y37550D01*
D02*
G37*
G36*
X24900Y38033D02*
X24801Y38020D01*
X24708Y37982D01*
X24629Y37921D01*
X24568Y37842D01*
X24530Y37749D01*
X24517Y37650D01*
X24530Y37551D01*
X24568Y37458D01*
X24629Y37379D01*
X24708Y37318D01*
X24801Y37280D01*
X24900Y37267D01*
X24999Y37280D01*
X25092Y37318D01*
X25171Y37379D01*
X25232Y37458D01*
X25270Y37551D01*
X25283Y37650D01*
X25270Y37749D01*
X25232Y37842D01*
X25171Y37921D01*
X25092Y37982D01*
X24999Y38020D01*
X24900Y38033D01*
D02*
G37*
G36*
X47100Y37345D02*
Y37150D01*
X47295D01*
X47285Y37198D01*
X47230Y37280D01*
X47148Y37335D01*
X47100Y37345D01*
D02*
G37*
G36*
X43974Y37312D02*
X43837D01*
X43756Y37296D01*
X43687Y37250D01*
X43641Y37181D01*
X43635Y37150D01*
X43974D01*
Y37312D01*
D02*
G37*
G36*
X47295Y37050D02*
X47100D01*
Y36855D01*
X47148Y36865D01*
X47230Y36920D01*
X47285Y37002D01*
X47295Y37050D01*
D02*
G37*
G36*
X47000D02*
X46805D01*
X46815Y37002D01*
X46870Y36920D01*
X46952Y36865D01*
X47000Y36855D01*
Y37050D01*
D02*
G37*
G36*
X44211Y36812D02*
X44074D01*
Y36650D01*
X44413D01*
X44407Y36681D01*
X44361Y36750D01*
X44292Y36796D01*
X44211Y36812D01*
D02*
G37*
G36*
X43974Y37050D02*
X43635D01*
X43641Y37019D01*
X43687Y36950D01*
X43756Y36904D01*
X43837Y36888D01*
X43974D01*
Y37050D01*
D02*
G37*
G36*
X46539D02*
X46200D01*
Y36888D01*
X46337D01*
X46418Y36904D01*
X46487Y36950D01*
X46533Y37019D01*
X46539Y37050D01*
D02*
G37*
G36*
X46100D02*
X45761D01*
X45767Y37019D01*
X45813Y36950D01*
X45882Y36904D01*
X45963Y36888D01*
X46100D01*
Y37050D01*
D02*
G37*
G36*
X44413D02*
X44074D01*
Y36888D01*
X44211D01*
X44292Y36904D01*
X44361Y36950D01*
X44407Y37019D01*
X44413Y37050D01*
D02*
G37*
G36*
X46539Y37550D02*
X46200D01*
Y37388D01*
X46337D01*
X46418Y37404D01*
X46487Y37450D01*
X46533Y37519D01*
X46539Y37550D01*
D02*
G37*
G36*
X43350Y38095D02*
Y37900D01*
X43545D01*
X43535Y37948D01*
X43480Y38030D01*
X43398Y38085D01*
X43350Y38095D01*
D02*
G37*
G36*
X43250D02*
X43202Y38085D01*
X43120Y38030D01*
X43065Y37948D01*
X43055Y37900D01*
X43250D01*
Y38095D01*
D02*
G37*
G36*
X42291Y38235D02*
X41975D01*
Y37900D01*
X42291D01*
Y38235D01*
D02*
G37*
G36*
X43974Y38312D02*
X43837D01*
X43756Y38296D01*
X43687Y38250D01*
X43641Y38181D01*
X43635Y38150D01*
X43974D01*
Y38312D01*
D02*
G37*
G36*
X44413Y38550D02*
X44074D01*
Y38388D01*
X44211D01*
X44292Y38404D01*
X44361Y38450D01*
X44407Y38519D01*
X44413Y38550D01*
D02*
G37*
G36*
X43974D02*
X43635D01*
X43641Y38519D01*
X43687Y38450D01*
X43756Y38404D01*
X43837Y38388D01*
X43974D01*
Y38550D01*
D02*
G37*
G36*
X44211Y38312D02*
X44074D01*
Y38150D01*
X44413D01*
X44407Y38181D01*
X44361Y38250D01*
X44292Y38296D01*
X44211Y38312D01*
D02*
G37*
G36*
X44413Y38050D02*
X44074D01*
Y37888D01*
X44211D01*
X44292Y37904D01*
X44361Y37950D01*
X44407Y38019D01*
X44413Y38050D01*
D02*
G37*
G36*
X43250Y37800D02*
X43055D01*
X43065Y37752D01*
X43120Y37670D01*
X43202Y37615D01*
X43250Y37605D01*
Y37800D01*
D02*
G37*
G36*
X42291D02*
X41975D01*
Y37465D01*
X42291D01*
Y37800D01*
D02*
G37*
G36*
X44211Y37792D02*
X43837D01*
X43764Y37777D01*
X43701Y37736D01*
X43660Y37673D01*
X43645Y37600D01*
X43660Y37527D01*
X43701Y37464D01*
X43764Y37423D01*
X43837Y37408D01*
X44211D01*
X44284Y37423D01*
X44347Y37464D01*
X44388Y37527D01*
X44403Y37600D01*
X44388Y37673D01*
X44347Y37736D01*
X44284Y37777D01*
X44211Y37792D01*
D02*
G37*
G36*
X43545Y37800D02*
X43350D01*
Y37605D01*
X43398Y37615D01*
X43480Y37670D01*
X43535Y37752D01*
X43545Y37800D01*
D02*
G37*
G36*
X43974Y38050D02*
X43635D01*
X43641Y38019D01*
X43687Y37950D01*
X43756Y37904D01*
X43837Y37888D01*
X43974D01*
Y38050D01*
D02*
G37*
G36*
X46337Y37812D02*
X46200D01*
Y37650D01*
X46539D01*
X46533Y37681D01*
X46487Y37750D01*
X46418Y37796D01*
X46337Y37812D01*
D02*
G37*
G36*
X46100D02*
X45963D01*
X45882Y37796D01*
X45813Y37750D01*
X45767Y37681D01*
X45761Y37650D01*
X46100D01*
Y37812D01*
D02*
G37*
%LPD*%
D10*
X43250Y39625D02*
D03*
Y40275D02*
D03*
D16*
X25300Y43500D02*
X45250D01*
X24150Y42350D02*
X25300Y43500D01*
X24150Y40500D02*
Y42350D01*
X44900Y34200D02*
Y39850D01*
X45000Y40150D02*
X45230Y39920D01*
X45000Y40150D02*
Y41979D01*
X45230Y39130D02*
Y39920D01*
X43300Y29500D02*
Y32200D01*
X28850Y39650D02*
Y40439D01*
X29850Y39650D02*
Y40439D01*
X30850Y39650D02*
Y40439D01*
X31850Y39650D02*
Y40439D01*
Y39650D02*
X31850Y39650D01*
X32850Y40439D02*
X32850Y40439D01*
Y39650D02*
Y40439D01*
X33850Y39650D02*
Y40439D01*
X34850Y39650D02*
Y40439D01*
X35850Y39650D02*
Y40439D01*
X36850Y39650D02*
Y40439D01*
X27161Y37750D02*
X28250D01*
X27161Y37750D02*
X27161Y37750D01*
Y37250D02*
X28250D01*
X27161Y37250D02*
X27161Y37250D01*
Y36750D02*
X28250D01*
X27161Y36750D02*
X27161Y36750D01*
X28250Y36250D02*
X28250Y36250D01*
X27161Y36250D02*
X28250D01*
X27161Y34750D02*
X28250D01*
X27161Y34750D02*
X27161Y34750D01*
Y34250D02*
X28250D01*
X27161Y34250D02*
X27161Y34250D01*
Y33750D02*
X28250D01*
X27161Y33750D02*
X27161Y33750D01*
Y33250D02*
X28250D01*
X27161Y33250D02*
X27161Y33250D01*
Y32750D02*
X28250D01*
X27161Y32750D02*
X27161Y32750D01*
Y32250D02*
X28250D01*
X27161Y32250D02*
X27161Y32250D01*
Y31750D02*
X28250D01*
X27161Y31750D02*
X27161Y31750D01*
Y31250D02*
X28250D01*
X27161Y31250D02*
X27161Y31250D01*
X27161Y30750D02*
X27161Y30750D01*
X27161Y30250D02*
X27161Y30250D01*
X28250D01*
X28100Y29750D02*
X28150Y29800D01*
X27161Y29750D02*
X28100D01*
X30350Y29061D02*
Y29900D01*
X31350Y29061D02*
Y29900D01*
X32350Y29061D02*
Y29900D01*
X33350Y29061D02*
Y29900D01*
X34350Y29061D02*
Y29900D01*
X35350Y29061D02*
Y29900D01*
X36350Y29061D02*
Y29900D01*
X37350D02*
X37350Y29900D01*
Y29061D02*
Y29900D01*
X37850Y29061D02*
X38261D01*
X38539Y29339D02*
Y29750D01*
X37750Y30250D02*
X38539D01*
X37750Y32250D02*
X38539D01*
X37750Y33750D02*
X38539D01*
X29350Y39650D02*
Y40439D01*
X30350Y39650D02*
Y40439D01*
X31350Y39650D02*
Y40439D01*
X32350Y39650D02*
Y40439D01*
X34350Y39650D02*
Y40439D01*
X35350Y39650D02*
Y40439D01*
X37350Y39650D02*
Y40439D01*
X30850Y29061D02*
Y29900D01*
X31850Y29061D02*
Y29900D01*
X32850Y29061D02*
Y29900D01*
X33850Y29061D02*
Y29900D01*
X34850Y29061D02*
Y29900D01*
X35850Y29061D02*
Y29900D01*
X36850Y29061D02*
Y29900D01*
X37750Y32750D02*
X38539D01*
X37750Y31750D02*
X38539D01*
X37750Y30750D02*
X38539D01*
X37750Y34250D02*
X38539D01*
X37750Y35250D02*
X38539D01*
X37750Y35750D02*
X38539D01*
X37750Y36250D02*
X38539D01*
X37750Y36750D02*
X38539D01*
X37750Y37250D02*
X38539D01*
X37750Y37750D02*
X38539D01*
X37750Y38250D02*
X38539D01*
X37750Y38750D02*
X38539D01*
X37750Y39250D02*
X38539D01*
Y39750D02*
Y40139D01*
X37850Y40439D02*
X38239D01*
X27161Y39750D02*
Y40139D01*
X27450Y40450D02*
X27839D01*
X27161Y30750D02*
X28250D01*
X33350Y39650D02*
Y40439D01*
X43200Y29050D02*
X43239D01*
X43850Y29661D02*
Y32200D01*
X43239Y29050D02*
X43850Y29661D01*
X43000Y33600D02*
X44300D01*
X45500Y39100D02*
X46150D01*
X45400Y39200D02*
X45500Y39100D01*
X45750Y40700D02*
X45850Y40800D01*
X45400Y40700D02*
X45750D01*
X37750Y31250D02*
X38539D01*
X46150Y39600D02*
Y41550D01*
Y38100D02*
X46950D01*
X46150Y38600D02*
X46500D01*
X46700Y38800D01*
X46950D01*
X45850Y40800D02*
Y41610D01*
X46950Y38450D02*
X47200D01*
X47314Y38564D01*
Y40950D01*
X24800Y38750D02*
X26541D01*
X24800Y38250D02*
X26541D01*
X46635Y40999D02*
Y41750D01*
X46586Y40950D02*
X46635Y40999D01*
X26350Y43000D02*
X44460D01*
X26420Y42830D02*
X44389D01*
X26491Y42660D02*
X44319D01*
X25400Y39250D02*
X26541D01*
X25120Y39530D02*
X25400Y39250D01*
X25120Y39530D02*
Y41289D01*
X26491Y42660D01*
X24900Y39200D02*
Y41310D01*
X24625Y38925D02*
Y41275D01*
X24900Y41310D02*
X26420Y42830D01*
X24625Y38925D02*
X24800Y38750D01*
X24625Y41275D02*
X26350Y43000D01*
X24455Y38595D02*
X24800Y38250D01*
X24455Y38595D02*
Y41345D01*
X26290Y43180D01*
X44520D01*
X45230Y39130D02*
X45750Y38610D01*
Y38600D02*
Y38610D01*
Y38600D02*
X46150D01*
X44319Y42660D02*
X45000Y41979D01*
X44300Y33600D02*
X44900Y34200D01*
X44389Y42830D02*
X45400Y41819D01*
Y41050D02*
Y41819D01*
X44460Y43000D02*
X45850Y41610D01*
X44520Y43180D02*
X46150Y41550D01*
X46635Y41750D02*
Y42115D01*
X45400Y39200D02*
Y40350D01*
Y40700D01*
X46950Y38100D02*
Y38450D01*
X45250Y43500D02*
X46635Y42115D01*
D17*
X28800Y27100D02*
X29250D01*
X28350D02*
X28800D01*
X28850Y27150D02*
Y28441D01*
X28800Y27100D02*
X28850Y27150D01*
X28000Y27100D02*
X28350D01*
X28350Y27100D02*
X28350Y27100D01*
X28350Y27100D02*
Y28441D01*
X27850Y27250D02*
Y28441D01*
X29350D02*
Y31050D01*
Y27200D02*
Y28441D01*
X27850Y27250D02*
X28000Y27100D01*
X29250D02*
X29350Y27200D01*
X37450Y33250D02*
X39350D01*
X39400Y33200D01*
X36350Y38050D02*
Y39650D01*
X36350D02*
Y42000D01*
X36750Y42400D01*
X40650D01*
X41275Y41775D01*
Y40300D02*
Y41775D01*
Y37800D02*
Y39600D01*
Y40300D01*
Y39600D02*
X44024D01*
X41275Y32600D02*
Y37800D01*
Y30300D02*
Y32000D01*
Y32600D01*
Y29625D02*
Y30300D01*
D18*
X37750Y34750D02*
X38539D01*
X28350Y39450D02*
Y40439D01*
D19*
X24900Y37650D02*
D03*
D20*
X40600Y39450D02*
D03*
X44900Y39850D02*
D03*
X28250Y35750D02*
D03*
X37450Y33250D02*
D03*
X29850Y29900D02*
D03*
X45250Y28150D02*
D03*
X43500Y26400D02*
D03*
X26500Y26150D02*
D03*
X24500Y28400D02*
D03*
X41000D02*
D03*
X28750Y30150D02*
D03*
X37250Y30400D02*
D03*
Y39150D02*
D03*
X43300Y37850D02*
D03*
X47050Y37100D02*
D03*
Y33100D02*
D03*
Y29600D02*
D03*
X43300Y32200D02*
D03*
X28850Y39650D02*
D03*
X29350D02*
D03*
X29850D02*
D03*
X30350D02*
D03*
X30850D02*
D03*
X31350D02*
D03*
X31850Y39650D02*
D03*
X32350Y39650D02*
D03*
X32850Y39650D02*
D03*
X33350D02*
D03*
X33850Y39650D02*
D03*
X34350D02*
D03*
X34850D02*
D03*
X35350D02*
D03*
X35850D02*
D03*
X36350Y39650D02*
D03*
X36850Y39650D02*
D03*
X37350D02*
D03*
X28250Y37750D02*
D03*
Y37250D02*
D03*
Y36750D02*
D03*
Y36250D02*
D03*
Y34750D02*
D03*
Y34250D02*
D03*
Y33750D02*
D03*
Y33250D02*
D03*
Y32750D02*
D03*
Y32250D02*
D03*
Y31750D02*
D03*
Y31250D02*
D03*
Y30250D02*
D03*
X28150Y29800D02*
D03*
X30350Y29900D02*
D03*
X31350D02*
D03*
X32350D02*
D03*
X33350D02*
D03*
X34350D02*
D03*
X35350D02*
D03*
X36350D02*
D03*
X37350D02*
D03*
X38261Y29061D02*
D03*
X38539Y29339D02*
D03*
X37750Y30250D02*
D03*
X37750Y30750D02*
D03*
Y31750D02*
D03*
X37750Y32250D02*
D03*
X37750Y32750D02*
D03*
X37750Y33750D02*
D03*
X30850Y29900D02*
D03*
X31850D02*
D03*
X32850D02*
D03*
X33850D02*
D03*
X34850D02*
D03*
X35850D02*
D03*
X36850D02*
D03*
X37750Y34250D02*
D03*
Y34750D02*
D03*
Y35250D02*
D03*
Y35750D02*
D03*
Y36250D02*
D03*
Y36750D02*
D03*
Y37250D02*
D03*
Y37750D02*
D03*
Y38250D02*
D03*
Y38750D02*
D03*
Y39250D02*
D03*
X38539Y40139D02*
D03*
X38239Y40439D02*
D03*
X27450Y40450D02*
D03*
X27161Y40139D02*
D03*
X29350Y31050D02*
D03*
X36350Y38050D02*
D03*
X28250Y30750D02*
D03*
X43000Y33600D02*
D03*
X43200Y29050D02*
D03*
X43300Y29500D02*
D03*
X43850Y32200D02*
D03*
X28500Y38900D02*
D03*
X28350Y39450D02*
D03*
X37750Y31250D02*
D03*
X38950Y40750D02*
D03*
X41275Y39600D02*
D03*
X41275Y37100D02*
D03*
X41275Y32000D02*
D03*
Y29625D02*
D03*
X24150Y40500D02*
D03*
X24900Y39200D02*
D03*
X45850Y42400D02*
D03*
X36150Y42300D02*
D03*
X26100Y41650D02*
D03*
X25050Y34700D02*
D03*
X40600Y36150D02*
D03*
X43200Y32600D02*
D03*
X25000Y42550D02*
D03*
D21*
X37850Y28441D02*
D03*
X37350D02*
D03*
X36850D02*
D03*
X36350D02*
D03*
X35850D02*
D03*
X35350D02*
D03*
X34850D02*
D03*
X34350D02*
D03*
X33850D02*
D03*
X33350D02*
D03*
X32850D02*
D03*
X32350D02*
D03*
X31850D02*
D03*
X31350D02*
D03*
X30850D02*
D03*
X30350D02*
D03*
X29850D02*
D03*
X29350D02*
D03*
X28850D02*
D03*
X28350D02*
D03*
X27850D02*
D03*
Y41059D02*
D03*
X28350D02*
D03*
X28850D02*
D03*
X29350D02*
D03*
X29850D02*
D03*
X30350D02*
D03*
X30850D02*
D03*
X31350D02*
D03*
X31850D02*
D03*
X32350D02*
D03*
X32850D02*
D03*
X33350D02*
D03*
X33850D02*
D03*
X34350D02*
D03*
X34850D02*
D03*
X35350D02*
D03*
X35850D02*
D03*
X36350D02*
D03*
X36850D02*
D03*
X37350D02*
D03*
X37850D02*
D03*
D22*
X26541Y29750D02*
D03*
Y30250D02*
D03*
Y30750D02*
D03*
Y31250D02*
D03*
Y31750D02*
D03*
Y32250D02*
D03*
Y32750D02*
D03*
Y33250D02*
D03*
Y33750D02*
D03*
Y34250D02*
D03*
Y34750D02*
D03*
Y35250D02*
D03*
Y35750D02*
D03*
Y36250D02*
D03*
Y36750D02*
D03*
Y37250D02*
D03*
Y37750D02*
D03*
Y38250D02*
D03*
Y38750D02*
D03*
Y39250D02*
D03*
Y39750D02*
D03*
X39159D02*
D03*
Y39250D02*
D03*
Y38750D02*
D03*
Y38250D02*
D03*
Y37750D02*
D03*
Y37250D02*
D03*
Y36750D02*
D03*
Y36250D02*
D03*
Y35750D02*
D03*
Y35250D02*
D03*
Y34750D02*
D03*
Y34250D02*
D03*
Y33750D02*
D03*
Y32750D02*
D03*
Y32250D02*
D03*
Y31750D02*
D03*
Y31250D02*
D03*
Y30750D02*
D03*
Y30250D02*
D03*
Y29750D02*
D03*
Y33250D02*
D03*
D23*
X41925Y40350D02*
D03*
X41275D02*
D03*
X41925Y37850D02*
D03*
X41275D02*
D03*
Y32600D02*
D03*
X41925D02*
D03*
X41875Y30500D02*
D03*
X41225D02*
D03*
D24*
X47314Y40950D02*
D03*
X46586D02*
D03*
D25*
X46150Y39600D02*
D03*
D26*
Y39100D02*
D03*
Y38600D02*
D03*
Y38100D02*
D03*
Y37600D02*
D03*
Y37100D02*
D03*
Y36600D02*
D03*
Y36100D02*
D03*
X44024Y39600D02*
D03*
Y39100D02*
D03*
Y38600D02*
D03*
Y38100D02*
D03*
Y37600D02*
D03*
Y37100D02*
D03*
Y36600D02*
D03*
Y36100D02*
D03*
D27*
X46635Y41750D02*
D03*
X47265D02*
D03*
D28*
X46950Y38800D02*
D03*
Y38450D02*
D03*
Y38100D02*
D03*
X45400Y41050D02*
D03*
Y40700D02*
D03*
Y40350D02*
D03*
M02*
